<?xml version="1.0" encoding="UTF-8"?>
<svg version="1.1" xmlns="http://www.w3.org/2000/svg" width="856" height="291">
<path d="M0 0 C1.04929687 -0.02578125 2.09859375 -0.0515625 3.1796875 -0.078125 C6.47108788 0.28855621 7.7954659 0.93687107 10.125 3.25 C10.875 5.9375 10.875 5.9375 11.125 8.25 C12.115 8.25 13.105 8.25 14.125 8.25 C14.2075 7.486875 14.29 6.72375 14.375 5.9375 C15.30794113 2.59446093 16.16225696 1.97992379 19.125 0.25 C22 -0.18359375 22 -0.18359375 25.125 -0.1875 C26.671875 -0.21650391 26.671875 -0.21650391 28.25 -0.24609375 C31.81505181 0.36907144 33.00673865 1.35266656 35.125 4.25 C35.125 5.57 35.125 6.89 35.125 8.25 C38.41636173 7.53917058 38.41636173 7.53917058 39.6875 4.25 C40.161875 3.26 40.63625 2.27 41.125 1.25 C43.79056463 -0.08278232 45.96146998 -0.0295909 48.9375 -0.125 C49.97519531 -0.17398438 51.01289062 -0.22296875 52.08203125 -0.2734375 C56.31721709 0.4550797 57.65563786 1.75511042 60.125 5.25 C60.78117326 8.25761359 60.73511329 11.12184601 60.625 14.1875 C60.62886719 15.36602539 60.62886719 15.36602539 60.6328125 16.56835938 C60.53621574 22.34001581 59.34494887 26.58606136 55.5625 31.125 C54.125 32.25 54.125 32.25 52.125 32.25 C52.125 40.17 52.125 48.09 52.125 56.25 C54.105 56.25 56.085 56.25 58.125 56.25 C58.455 54.6 58.785 52.95 59.125 51.25 C65.84722287 48.592377 72.04655682 49.46232362 79.125 50.25 C79.41117187 51.05824219 79.69734375 51.86648437 79.9921875 52.69921875 C80.36601562 53.54097656 80.73984375 54.38273437 81.125 55.25 C83.16605639 56.13693303 83.16605639 56.13693303 85.125 56.25 C85.104375 55.445625 85.08375 54.64125 85.0625 53.8125 C85.125 51.25 85.125 51.25 86.125 50.25 C89.26242768 49.97313113 92.41429277 50.01826371 95.5625 50 C96.44744141 49.979375 97.33238281 49.95875 98.24414062 49.9375 C99.51354492 49.92976563 99.51354492 49.92976563 100.80859375 49.921875 C101.58775146 49.9125293 102.36690918 49.90318359 103.16967773 49.89355469 C103.81493408 50.01118164 104.46019043 50.12880859 105.125 50.25 C107.125 53.25 107.125 53.25 107.125 56.25 C108.445 56.25 109.765 56.25 111.125 56.25 C111.455 54.6 111.785 52.95 112.125 51.25 C116.87010991 49.3373557 120.4277285 49.14648382 125.5 49.625 C126.74523437 49.73585937 127.99046875 49.84671875 129.2734375 49.9609375 C130.21445313 50.05632812 131.15546875 50.15171875 132.125 50.25 C132.455 52.23 132.785 54.21 133.125 56.25 C135.435 56.25 137.745 56.25 140.125 56.25 C140.10219139 52.49865446 140.02487383 48.75035358 139.9375 45 C139.93169922 43.93652344 139.92589844 42.87304688 139.91992188 41.77734375 C139.94117121 35.64630526 139.94117121 35.64630526 136.69921875 30.765625 C135.84972656 30.26546875 135.00023437 29.7653125 134.125 29.25 C131.24685993 24.72535915 131.75704292 19.94063513 131.75 14.75 C131.72550781 13.79996094 131.70101562 12.84992187 131.67578125 11.87109375 C131.6468992 5.02604768 131.6468992 5.02604768 133.7421875 1.625 C136.85600989 -0.17182866 139.04032939 -0.28288689 142.625 -0.25 C143.7490625 -0.2603125 144.873125 -0.270625 146.03125 -0.28125 C149.72982841 0.35385942 150.95187583 1.22467027 153.125 4.25 C153.125 5.57 153.125 6.89 153.125 8.25 C154.115 8.25 155.105 8.25 156.125 8.25 C156.393125 7.30125 156.66125 6.3525 156.9375 5.375 C158.125 2.25 158.125 2.25 161.125 0.25 C163.90234375 -0.05078125 163.90234375 -0.05078125 167.0625 -0.0625 C168.10277344 -0.07925781 169.14304688 -0.09601562 170.21484375 -0.11328125 C173.45789306 0.29155578 174.83759649 0.9462189 177.125 3.25 C177.375 5.9375 177.375 5.9375 177.125 8.25 C178.445 8.25 179.765 8.25 181.125 8.25 C181.2075 7.486875 181.29 6.72375 181.375 5.9375 C182.30794113 2.59446093 183.16225696 1.97992379 186.125 0.25 C189 -0.18359375 189 -0.18359375 192.125 -0.1875 C193.671875 -0.21650391 193.671875 -0.21650391 195.25 -0.24609375 C198.125 0.25 198.125 0.25 200.46484375 1.6328125 C203.08204487 5.75875309 202.74348362 9.77754732 202.6875 14.5625 C202.71134766 15.48740234 202.73519531 16.41230469 202.75976562 17.36523438 C202.74571663 23.95421351 201.53301599 27.32339389 197.125 32.25 C196.135 32.745 196.135 32.745 195.125 33.25 C195.125 74.17 195.125 115.09 195.125 157.25 C198.095 158.24 198.095 158.24 201.125 159.25 C203.1766772 161.3016772 202.67288349 165.24519309 202.875 168.0625 C202.94332031 168.78759766 203.01164063 169.51269531 203.08203125 170.25976562 C203.29688072 173.27041268 203.38254201 175.67760642 202.1306076 178.46006203 C199.06291925 181.19787168 195.83702069 180.79510816 191.92590332 180.74447632 C191.0801614 180.74930515 190.23441949 180.75413398 189.36304903 180.75910914 C186.51841476 180.77041477 183.67467255 180.75303493 180.83007812 180.73583984 C178.79511776 180.73798485 176.76015858 180.74186126 174.72520447 180.74734497 C169.19011315 180.7570583 163.65534321 180.74171016 158.12029076 180.72143888 C152.33609747 180.70390386 146.55191464 180.70739227 140.7677002 180.7081604 C131.05292364 180.70628589 121.33827184 180.68890172 111.62353516 180.66162109 C100.38147544 180.63016872 89.13955242 180.61962482 77.89745188 180.6210922 C67.09644575 180.62231176 56.29548429 180.61211 45.49449158 180.59550858 C40.89167431 180.58843582 36.28887285 180.58478106 31.68605042 180.58372116 C26.26882972 180.58171604 20.85172436 180.56953719 15.4345417 180.54938889 C13.44268563 180.54353378 11.45081629 180.54108918 9.45895195 180.54224396 C6.74720981 180.54322138 4.03579354 180.53195362 1.32409668 180.51742554 C0.52945527 180.52052274 -0.26518615 180.52361995 -1.0839076 180.526811 C-4.88397252 180.493018 -6.63439142 180.41040572 -9.875 178.25 C-10.24731445 176.40234375 -10.24731445 176.40234375 -10.23828125 174.1875 C-10.23763672 173.39085937 -10.23699219 172.59421875 -10.23632812 171.7734375 C-10.22021484 170.94070312 -10.20410156 170.10796875 -10.1875 169.25 C-10.19072266 168.41726562 -10.19394531 167.58453125 -10.19726562 166.7265625 C-10.14200255 160.51700255 -10.14200255 160.51700255 -7.875 158.25 C-5.25 158.125 -5.25 158.125 -2.875 158.25 C-2.73481705 142.03846511 -2.62902323 125.8271269 -2.56412697 109.61513233 C-2.53319303 102.08753508 -2.49102225 94.56031447 -2.42236328 87.03295898 C-2.36254601 80.47182406 -2.32384746 73.9109619 -2.31046903 67.34956187 C-2.30264883 63.87541128 -2.28428196 60.40204102 -2.24061966 56.92814064 C-2.19226429 53.0493575 -2.19106166 49.17133662 -2.19384766 45.29223633 C-2.172276 44.14137039 -2.15070435 42.99050446 -2.128479 41.80476379 C-2.00081459 36.30385562 -2.00081459 36.30385562 -4.20888901 31.47891808 C-5.99542278 29.94533261 -5.99542278 29.94533261 -8.875 28.25 C-11.39922727 24.00173278 -11.20827288 19.56099857 -11.1875 14.75 C-11.20361328 14.00363281 -11.21972656 13.25726563 -11.23632812 12.48828125 C-11.24036852 7.92263762 -10.81130917 4.96503837 -7.875 1.25 C-5.18393093 -0.09553453 -3.00334578 0.04405886 0 0 Z M-0.875 9.25 C-1.78130855 11.96892564 -2.09701578 13.86343987 -2.1875 16.6875 C-2.22488281 17.44933594 -2.26226562 18.21117187 -2.30078125 18.99609375 C-1.66516976 22.36075276 -0.67875911 23.24189875 2.125 25.25 C5.65634896 25.84079234 9.15396911 25.76222046 12.7265625 25.7109375 C14.27577896 25.70956284 14.27577896 25.70956284 15.85629272 25.7081604 C18.03672896 25.70212361 20.21715687 25.68637536 22.39746094 25.66162109 C25.74444935 25.62506063 29.09033257 25.6206021 32.4375 25.62109375 C34.55469712 25.61126476 36.67188671 25.59960871 38.7890625 25.5859375 C40.29685776 25.58259903 40.29685776 25.58259903 41.83511353 25.57919312 C42.76302704 25.56643341 43.69094055 25.55367371 44.64697266 25.54052734 C45.87463852 25.52909195 45.87463852 25.52909195 47.12710571 25.51742554 C49.35468337 25.42501258 49.35468337 25.42501258 51.125 23.25 C51.36877883 19.89255888 51.36877883 19.89255888 51.25 16.125 C51.23195312 14.84367187 51.21390625 13.56234375 51.1953125 12.2421875 C51.17210937 11.25476563 51.14890625 10.26734375 51.125 9.25 C49.805 9.25 48.485 9.25 47.125 9.25 C46.815625 10.219375 46.50625 11.18875 46.1875 12.1875 C45.125 15.25 45.125 15.25 44.125 16.25 C41.83687186 16.40215174 39.54300872 16.47186492 37.25 16.5 C35.36667969 16.53867187 35.36667969 16.53867187 33.4453125 16.578125 C30.125 16.25 30.125 16.25 28.22265625 14.87109375 C26.96955978 13.02043526 26.50296425 11.44219266 26.125 9.25 C25.135 9.25 24.145 9.25 23.125 9.25 C22.465 11.56 21.805 13.87 21.125 16.25 C15.185 16.25 9.245 16.25 3.125 16.25 C2.465 13.94 1.805 11.63 1.125 9.25 C0.465 9.25 -0.195 9.25 -0.875 9.25 Z M140.125 9.25 C140.04366209 11.16595968 139.98565633 13.08291932 139.9375 15 C139.90269531 16.06734375 139.86789063 17.1346875 139.83203125 18.234375 C140.16618481 21.67392897 140.75533542 22.79295153 143.125 25.25 C145.3373531 25.84001087 145.3373531 25.84001087 147.84008789 25.73583984 C148.79440201 25.7419931 149.74871613 25.74814636 150.73194885 25.75448608 C151.76013229 25.74011505 152.78831573 25.72574402 153.84765625 25.7109375 C154.90407822 25.71002106 155.96050018 25.70910461 157.04893494 25.7081604 C159.28242485 25.70211695 161.51590638 25.6863488 163.74926758 25.66162109 C167.17754803 25.625106 170.60474853 25.62060169 174.03320312 25.62109375 C176.20053022 25.61126333 178.36784997 25.59960666 180.53515625 25.5859375 C182.08046776 25.58259903 182.08046776 25.58259903 183.65699768 25.57919312 C184.60815964 25.56643341 185.55932159 25.55367371 186.53930664 25.54052734 C187.37853165 25.53290375 188.21775665 25.52528015 189.08241272 25.51742554 C191.34963989 25.43157927 191.34963989 25.43157927 193.125 23.25 C193.36877883 19.89255888 193.36877883 19.89255888 193.25 16.125 C193.23195312 14.84367187 193.21390625 13.56234375 193.1953125 12.2421875 C193.17210937 11.25476563 193.14890625 10.26734375 193.125 9.25 C192.135 9.25 191.145 9.25 190.125 9.25 C189.465 11.56 188.805 13.87 188.125 16.25 C185.5191111 16.38494246 182.92017889 16.48402299 180.3125 16.5625 C179.57451172 16.60439453 178.83652344 16.64628906 178.07617188 16.68945312 C175.91796875 16.73828125 175.91796875 16.73828125 172.125 16.25 C170.17578125 13.85546875 170.17578125 13.85546875 169.125 11.25 C168.795 10.59 168.465 9.93 168.125 9.25 C167.135 9.25 166.145 9.25 165.125 9.25 C164.135 11.56 163.145 13.87 162.125 16.25 C157.175 16.25 152.225 16.25 147.125 16.25 C146.135 13.94 145.145 11.63 144.125 9.25 C142.805 9.25 141.485 9.25 140.125 9.25 Z M10.42741394 33.75808716 C9.62062793 33.84973207 8.81384192 33.94137699 7.98260784 34.03579903 C7.06309196 34.14182851 7.06309196 34.14182851 6.125 34.25 C6.10163384 49.67931563 6.08400254 65.10862994 6.07318783 80.5379591 C6.06803278 87.70215128 6.06100513 94.86633246 6.04956055 102.03051758 C6.03958957 108.27522375 6.03314081 114.51992195 6.03091151 120.76463586 C6.02960851 124.07078023 6.02602331 127.37689651 6.01926994 130.6830349 C6.01202757 134.37488541 6.01101042 138.06668847 6.01147461 141.75854492 C6.00787933 142.85330643 6.00428406 143.94806793 6.00057983 145.07600403 C6.0019545 146.08416168 6.00332916 147.09231934 6.00474548 148.13102722 C6.00382369 149.00396518 6.0029019 149.87690313 6.00195217 150.77629375 C6.08626504 153.69400923 6.08626504 153.69400923 7.125 158.25 C18.675 158.25 30.225 158.25 42.125 158.25 C43.11181058 155.28956827 43.24845255 153.38171159 43.24525452 150.29560852 C43.24662918 149.27337189 43.24800385 148.25113525 43.24942017 147.19792175 C43.24582489 146.07726822 43.24222961 144.95661469 43.23852539 143.80200195 C43.23867142 142.62138184 43.23881744 141.44076172 43.2389679 140.22436523 C43.23839024 136.98702558 43.23337183 133.74972905 43.22639394 130.512398 C43.22014648 127.12913211 43.2195555 123.74586538 43.21836853 120.3625946 C43.21525933 113.95593784 43.20705147 107.54929813 43.19701904 101.14264888 C43.18584516 93.84888731 43.18034423 86.55512494 43.17532361 79.26135695 C43.16486853 64.2575618 43.14727702 49.2537826 43.125 34.25 C39.92410872 33.39558442 37.12303357 33.12122882 33.80078125 33.1171875 C32.25680664 33.11525391 32.25680664 33.11525391 30.68164062 33.11328125 C29.61107422 33.11714844 28.54050781 33.12101562 27.4375 33.125 C25.8606543 33.11919922 25.8606543 33.11919922 24.25195312 33.11328125 C23.21619141 33.11457031 22.18042969 33.11585937 21.11328125 33.1171875 C20.18040283 33.11831543 19.24752441 33.11944336 18.28637695 33.12060547 C15.6335284 33.22918603 13.06250545 33.45680621 10.42741394 33.75808716 Z M149.125 34.25 C149.07989054 50.12228503 149.04303268 65.99451946 149.02137566 81.8668499 C149.01105362 89.23628913 148.99697565 96.60568576 148.97412109 103.97509766 C148.95421552 110.39666621 148.94129031 116.81820393 148.93682301 123.23980248 C148.93421081 126.6414529 148.92805191 130.04301509 148.91353989 133.4446373 C148.89911021 137.23772251 148.89701848 141.03062241 148.89794922 144.82373047 C148.89075867 145.95733002 148.88356812 147.09092957 148.87615967 148.25888062 C148.878909 149.28815674 148.88165833 150.31743286 148.88449097 151.37789917 C148.88264738 152.27572554 148.88080379 153.1735519 148.87890434 154.09858513 C148.92337352 156.46315034 148.92337352 156.46315034 151.125 158.25 C162.345 158.25 173.565 158.25 185.125 158.25 C185.125 117.33 185.125 76.41 185.125 34.25 C173.245 34.25 161.365 34.25 149.125 34.25 Z M68.125 58.25 C67.856875 59.219375 67.58875 60.18875 67.3125 61.1875 C65.125 64.25 65.125 64.25 62.546875 64.80078125 C60.57430206 64.93245824 58.59780579 65.01537361 56.62109375 65.046875 C53.95028853 64.99309528 53.95028853 64.99309528 52.125 67.25 C51.79302127 69.79103754 51.79302127 69.79103754 51.80615234 72.79101562 C51.78628265 73.95403198 51.76641296 75.11704834 51.74594116 76.31530762 C51.73438995 77.5828186 51.72283875 78.85032959 51.7109375 80.15625 C51.69157135 81.46468872 51.6722052 82.77312744 51.6522522 84.12121582 C51.60075909 87.61921042 51.5613012 91.11724564 51.52410889 94.61541748 C51.48470286 98.10439757 51.43304837 101.59319347 51.3828125 105.08203125 C51.27432942 112.80451167 51.19537402 120.52707232 51.125 128.25 C51.10959167 129.7030957 51.10959167 129.7030957 51.09387207 131.18554688 C51.06939158 133.61328913 51.05233205 136.04092422 51.0390625 138.46875 C51.03084473 139.71591797 51.02262695 140.96308594 51.01416016 142.24804688 C51.16219129 147.59281846 51.68097067 152.92164805 52.125 158.25 C60.375 158.25 68.625 158.25 77.125 158.25 C77.15078125 155.46691406 77.1765625 152.68382812 77.203125 149.81640625 C77.24163072 147.09568535 77.28676332 144.37514853 77.33251953 141.65454102 C77.36059764 139.77605096 77.3818771 137.89744566 77.39599609 136.01879883 C77.41760925 133.30490671 77.46435047 130.59238128 77.515625 127.87890625 C77.51685364 127.05040665 77.51808228 126.22190704 77.51934814 125.36830139 C77.66666745 119.39032014 78.98153921 114.38893505 82.125 109.25 C87.28921324 104.94648896 91.38515919 103.915384 98.0390625 104.0390625 C103.04684206 104.54546717 106.74747506 106.50353861 110 110.25 C113.1747561 114.73200861 113.30387432 118.39675863 113.40625 123.69921875 C113.43386414 124.79638969 113.43386414 124.79638969 113.46203613 125.91572571 C113.52071592 128.25623618 113.57349304 130.5968214 113.625 132.9375 C113.6766987 135.26031766 113.72985903 137.58304918 113.78796387 139.90571594 C113.82406065 141.3493009 113.85660564 142.79298091 113.8848877 144.23674011 C114.00406784 149.01618712 114.52555092 153.45440739 115.125 158.25 C123.375 158.25 131.625 158.25 140.125 158.25 C140.125 127.56 140.125 96.87 140.125 65.25 C135.175 64.92 130.225 64.59 125.125 64.25 C124.63 61.28 124.63 61.28 124.125 58.25 C122.805 58.58 121.485 58.91 120.125 59.25 C119.795 60.9 119.465 62.55 119.125 64.25 C112.855 64.25 106.585 64.25 100.125 64.25 C99.135 62.27 98.145 60.29 97.125 58.25 C96.135 58.58 95.145 58.91 94.125 59.25 C93.74730469 60.08917969 93.36960938 60.92835937 92.98046875 61.79296875 C91.125 64.25 91.125 64.25 89.29541016 64.65869141 C86.99185293 64.74271016 84.73924841 64.68523474 82.4375 64.5625 C81.64021484 64.53994141 80.84292969 64.51738281 80.02148438 64.49414062 C78.05518666 64.43526944 76.08985509 64.34558755 74.125 64.25 C73.135 62.27 72.145 60.29 71.125 58.25 C70.135 58.25 69.145 58.25 68.125 58.25 Z M87.125 116.25 C85.46372225 119.57255551 85.98338276 123.28934429 85.9921875 126.94140625 C85.99123077 127.80185043 85.99027405 128.66229462 85.98928833 129.54881287 C85.98860735 131.36872429 85.99045591 133.18863815 85.99462891 135.00854492 C85.99998483 137.80457979 85.9946778 140.60045448 85.98828125 143.39648438 C85.98894192 145.16145869 85.99022285 146.9264329 85.9921875 148.69140625 C85.99016327 149.53304825 85.98813904 150.37469025 85.98605347 151.24183655 C85.6280319 155.05396543 85.6280319 155.05396543 87.125 158.25 C88.45543625 158.3483721 89.79093344 158.38078592 91.125 158.3828125 C91.929375 158.38410156 92.73375 158.38539063 93.5625 158.38671875 C94.8309375 158.38091797 94.8309375 158.38091797 96.125 158.375 C96.970625 158.37886719 97.81625 158.38273437 98.6875 158.38671875 C99.491875 158.38542969 100.29625 158.38414062 101.125 158.3828125 C102.23875 158.38112061 102.23875 158.38112061 103.375 158.37939453 C105.15325811 158.43942216 105.15325811 158.43942216 106.125 157.25 C106.23849998 154.56949301 106.2891844 151.91575057 106.29296875 149.234375 C106.29629715 148.42639465 106.29962555 147.61841431 106.30305481 146.78594971 C106.30812915 145.07101004 106.31046298 143.35606045 106.31030273 141.64111328 C106.31247929 139.02489724 106.33060175 136.40910953 106.34960938 133.79296875 C106.35254523 132.12760561 106.35452874 130.46224046 106.35546875 128.796875 C106.36265427 128.01648865 106.36983978 127.23610229 106.37724304 126.43206787 C106.35584287 121.30457227 105.99399772 117.33465131 102.5 113.4375 C96.50692487 110.44096244 91.63231706 111.60609758 87.125 116.25 Z M-0.875 167.25 C-0.875 168.57 -0.875 169.89 -0.875 171.25 C63.475 171.25 127.825 171.25 194.125 171.25 C193.795 169.93 193.465 168.61 193.125 167.25 C129.105 167.25 65.085 167.25 -0.875 167.25 Z " fill="#755548" transform="translate(48.875,39.75)"/>
<path d="M0 0 C3.58282854 2.91104819 5.01547875 5.30969581 7 9.4375 C7.33 9.4375 7.66 9.4375 8 9.4375 C8.23102956 15.55978333 6.93532442 18.15074633 3.5 23 C3.0771875 23.59941406 2.654375 24.19882813 2.21875 24.81640625 C1 26.4375 1 26.4375 -1 28.4375 C-2.01594091 30.21582345 -2.01594091 30.21582345 -2 32.4375 C-0.35781898 35.27287868 -0.35781898 35.27287868 1.9375 38.0625 C6 43.26082762 6 43.26082762 6 45.4375 C6.66 45.4375 7.32 45.4375 8 45.4375 C8.09724365 44.76485107 8.1944873 44.09220215 8.29467773 43.39916992 C9.57708573 35.10755953 11.45304771 27.03927239 13.51391602 18.9152832 C14.07097405 16.71655257 14.61892831 14.5156836 15.16601562 12.31445312 C17.86291272 1.57458728 17.86291272 1.57458728 19 0.4375 C20.97712807 0.33849801 22.95790038 0.30779227 24.9375 0.3125 C26.55978516 0.30863281 26.55978516 0.30863281 28.21484375 0.3046875 C31 0.4375 31 0.4375 33 1.4375 C33.40729228 3.75906597 33.74438677 6.0943787 34 8.4375 C34.66 8.4375 35.32 8.4375 36 8.4375 C36.04898438 9.10394531 36.09796875 9.77039063 36.1484375 10.45703125 C36.69678738 17.21686171 37.6744027 23.78880107 39 30.4375 C39.16242188 31.26507813 39.32484375 32.09265625 39.4921875 32.9453125 C39.83209235 34.6134609 40.19167398 36.27771469 40.5703125 37.9375 C40.84488281 39.175 40.84488281 39.175 41.125 40.4375 C41.40730469 41.675 41.40730469 41.675 41.6953125 42.9375 C42.02986849 45.68257478 41.67613475 47.77105311 41 50.4375 C37.7 50.1075 34.4 49.7775 31 49.4375 C30.34 47.1275 29.68 44.8175 29 42.4375 C27.88625 42.251875 27.88625 42.251875 26.75 42.0625 C24.19858515 41.48263299 22.2732427 40.70041261 20 39.4375 C20.20625 40.015 20.4125 40.5925 20.625 41.1875 C21.10169309 44.04765855 20.39870728 44.93455013 19 47.4375 C18.31039038 49.42970557 17.63920943 51.42855606 17 53.4375 C16.24074219 53.3653125 15.48148438 53.293125 14.69921875 53.21875 C13.20841797 53.07953125 13.20841797 53.07953125 11.6875 52.9375 C10.20830078 52.79828125 10.20830078 52.79828125 8.69921875 52.65625 C5.37903726 52.38717596 3.18928481 52.37440506 0 53.4375 C-4.7367351 47.15281225 -9.46693588 40.87152649 -14 34.4375 C-14.33 40.0475 -14.66 45.6575 -15 51.4375 C-22.71484375 51.53515625 -22.71484375 51.53515625 -25 51.4375 C-26.58445025 49.85304975 -26.12728029 48.23815777 -26.12939453 46.04125977 C-26.13254669 45.10681534 -26.13569885 44.17237091 -26.13894653 43.20960999 C-26.1369223 42.19297775 -26.13489807 41.17634552 -26.1328125 40.12890625 C-26.13376923 39.09185043 -26.13472595 38.05479462 -26.13571167 36.98631287 C-26.13639369 34.78799377 -26.13453791 32.58967268 -26.13037109 30.39135742 C-26.12502854 27.01802051 -26.1303126 23.64481708 -26.13671875 20.27148438 C-26.13605787 18.1406247 -26.13477649 16.00976512 -26.1328125 13.87890625 C-26.13483673 12.86429825 -26.13686096 11.84969025 -26.13894653 10.80433655 C-26.13579437 9.86673996 -26.13264221 8.92914337 -26.12939453 7.96313477 C-26.12859894 7.13564224 -26.12780334 6.30814972 -26.12698364 5.45558167 C-26 3.4375 -26 3.4375 -25 1.4375 C-17.73849111 -2.32261624 -7.49456322 -3.73119886 0 0 Z M-13 8.4375 C-14.14077657 11.85982972 -14.09815117 14.52423217 -14.0625 18.125 C-14.05347656 19.30449219 -14.04445313 20.48398438 -14.03515625 21.69921875 C-14.02355469 22.60285156 -14.01195312 23.50648438 -14 24.4375 C-8.62704618 21.75102309 -5.96852125 19.66209741 -3 14.4375 C-4.05098766 11.57117003 -4.66862954 10.60743357 -7.4375 9.1875 C-10.03486851 8.29705062 -10.03486851 8.29705062 -13 8.4375 Z M23 21.4375 C24 23.4375 24 23.4375 24 23.4375 Z M25 21.4375 C24.67 24.4075 24.34 27.3775 24 30.4375 C25.32 30.1075 26.64 29.7775 28 29.4375 C27.34 26.7975 26.68 24.1575 26 21.4375 C25.67 21.4375 25.34 21.4375 25 21.4375 Z M22 26.4375 C23 28.4375 23 28.4375 23 28.4375 Z " fill="#111010" transform="translate(707,215.5625)"/>
<path d="M0 0 C2.01171875 0.85546875 2.01171875 0.85546875 3.1796875 2.8046875 C3.51613281 3.70832031 3.85257812 4.61195312 4.19921875 5.54296875 C4.8334375 7.17492187 4.8334375 7.17492187 5.48046875 8.83984375 C5.71894531 9.46826172 5.95742188 10.09667969 6.203125 10.74414062 C16.51359081 37.66591246 29.10105836 63.30642429 44.01171875 87.98046875 C44.45636475 88.72063232 44.90101074 89.4607959 45.35913086 90.22338867 C47.57589519 93.82790762 49.67703947 97.16843379 53.01171875 99.85546875 C56.17955075 100.18995134 56.17955075 100.18995134 59.01171875 99.85546875 C59.01171875 101.17546875 59.01171875 102.49546875 59.01171875 103.85546875 C55.90860237 104.5270887 52.80406707 105.1919055 49.69921875 105.85546875 C48.81814453 106.04625 47.93707031 106.23703125 47.02929688 106.43359375 C46.18173828 106.6140625 45.33417969 106.79453125 44.4609375 106.98046875 C43.68065186 107.14804688 42.90036621 107.315625 42.09643555 107.48828125 C40.01171875 107.85546875 40.01171875 107.85546875 37.01171875 107.85546875 C36.67027832 107.02635986 36.32883789 106.19725098 35.97705078 105.34301758 C34.36942318 101.44889653 32.75566793 97.55739477 31.13671875 93.66796875 C30.84503815 92.96717194 30.55335754 92.26637512 30.25283813 91.54434204 C26.07627237 81.53444439 21.7090058 71.65749169 16.90869141 61.92700195 C16.33127197 60.7527063 16.33127197 60.7527063 15.7421875 59.5546875 C15.40598389 58.88268311 15.06978027 58.21067871 14.72338867 57.51831055 C14.01171875 55.85546875 14.01171875 55.85546875 14.01171875 53.85546875 C-0.98790807 51.51359873 -0.98790807 51.51359873 -15.98828125 52.85546875 C-18.94389176 55.24009222 -20.40189777 58.22713126 -22.1328125 61.5625 C-22.72489502 62.70066162 -23.31697754 63.83882324 -23.92700195 65.01147461 C-24.55214648 66.23002325 -25.17673052 67.44885959 -25.80078125 68.66796875 C-26.11542328 69.27851105 -26.43006531 69.88905334 -26.75424194 70.51809692 C-34.68306192 85.17112611 -34.68306192 85.17112611 -39.98828125 100.85546875 C-38.33828125 101.18546875 -36.68828125 101.51546875 -34.98828125 101.85546875 C-35.31828125 103.17546875 -35.64828125 104.49546875 -35.98828125 105.85546875 C-42.91828125 105.85546875 -49.84828125 105.85546875 -56.98828125 105.85546875 C-55.99586218 101.88579246 -54.85037076 99.86033656 -52.59375 96.515625 C-51.53982056 94.93648315 -51.53982056 94.93648315 -50.46459961 93.32543945 C-50.09108368 92.76990387 -49.71756775 92.21436829 -49.33273315 91.64199829 C-41.79275599 80.40631656 -34.74988956 68.97986677 -28.23144531 57.11572266 C-27.09869903 55.05622441 -25.94844395 53.00773372 -24.79296875 50.9609375 C-16.90034906 36.79936609 -10.57353383 21.77673928 -5.83935547 6.27612305 C-5.27298899 4.45272482 -4.63719383 2.65114816 -3.98828125 0.85546875 C-1.98828125 -0.14453125 -1.98828125 -0.14453125 0 0 Z M-3.98828125 18.85546875 C-5.36333565 22.24321261 -6.70953565 25.64171322 -8.05078125 29.04296875 C-8.63569336 30.4825293 -8.63569336 30.4825293 -9.23242188 31.95117188 C-9.59658203 32.88251953 -9.96074219 33.81386719 -10.3359375 34.7734375 C-10.67633057 35.62703857 -11.01672363 36.48063965 -11.36743164 37.36010742 C-12.08811109 40.25671168 -11.90513629 42.02929305 -10.98828125 44.85546875 C-8.69174425 46.00373725 -7.40514958 45.9710805 -4.85546875 45.953125 C-4.04980469 45.94990234 -3.24414062 45.94667969 -2.4140625 45.94335938 C-1.57230469 45.93498047 -0.73054688 45.92660156 0.13671875 45.91796875 C1.41095703 45.91120117 1.41095703 45.91120117 2.7109375 45.90429688 C4.81122784 45.89249749 6.91148205 45.87456181 9.01171875 45.85546875 C6.67032474 36.63154289 3.07850094 25.51464727 -3.98828125 18.85546875 Z " fill="#7A5B50" transform="translate(314.98828125,72.14453125)"/>
<path d="M0 0 C10 1 10 1 11 2 C14.01356335 1.73990078 16.99853311 1.42583547 20 1.0625 C26.38419958 0.2906194 32.56536809 -0.11027091 39 0 C41.125 6.625 41.125 6.625 40 10 C38.02 10 36.04 10 34 10 C32.69079497 13.9276151 32.76537132 17.72570631 32.68359375 21.82421875 C32.66281265 22.68561966 32.64203156 23.54702057 32.62062073 24.43452454 C32.55525091 27.18543544 32.49629868 29.93644156 32.4375 32.6875 C32.39430283 34.55274421 32.35068815 36.4179788 32.30664062 38.28320312 C32.19958237 42.85537124 32.09827946 47.4276351 32 52 C28.30581799 53.231394 25.7943739 52.64432764 22 52 C20.93621331 47.68227756 20.8705784 43.49257744 20.90234375 39.07421875 C20.9037587 38.32662796 20.90517365 37.57903717 20.90663147 36.80879211 C20.91220236 34.43498635 20.9247494 32.06127697 20.9375 29.6875 C20.94251877 28.07226699 20.94708101 26.4570325 20.95117188 24.84179688 C20.96216225 20.89449445 20.97940668 16.94726353 21 13 C19.88625 13.020625 18.7725 13.04125 17.625 13.0625 C14 13 14 13 12 12 C10.73374576 15.79876271 10.76701453 19.42421926 10.68359375 23.38671875 C10.66281265 24.20372757 10.64203156 25.02073639 10.62062073 25.86250305 C10.55526921 28.47075034 10.49630727 31.07909775 10.4375 33.6875 C10.39430108 35.45639054 10.35068635 37.22527097 10.30664062 38.99414062 C10.19960257 43.32932463 10.09829456 47.66460929 10 52 C7.03 52 4.06 52 1 52 C-2.66666667 44.66666667 -6.33333333 37.33333333 -10 30 C-11.30774665 37.98614219 -12.38541771 45.9295642 -13 54 C-14.47968324 53.85950482 -15.95874516 53.71245174 -17.4375 53.5625 C-18.26121094 53.48128906 -19.08492187 53.40007812 -19.93359375 53.31640625 C-22 53 -22 53 -23 52 C-23.10003119 50.45442375 -23.13081127 48.90427738 -23.1328125 47.35546875 C-23.13490723 46.37747314 -23.13700195 45.39947754 -23.13916016 44.3918457 C-23.1344873 43.33441162 -23.12981445 42.27697754 -23.125 41.1875 C-23.12161621 40.11266357 -23.11823242 39.03782715 -23.11474609 37.93041992 C-23.07010565 30.88605414 -22.9311425 23.85046418 -22.625 16.8125 C-22.59422363 15.99483154 -22.56344727 15.17716309 -22.53173828 14.3347168 C-22.31958415 10.16073823 -21.88119367 6.81591725 -20 3 C-18.56163249 3.11458693 -17.12429034 3.24209116 -15.6875 3.375 C-14.48673828 3.47941406 -14.48673828 3.47941406 -13.26171875 3.5859375 C-11 4 -11 4 -8 6 C-7.65048379 7.99723547 -7.32173372 9.99810127 -7 12 C-5.24783365 18.47826994 -5.24783365 18.47826994 -1 23 C-0.67 15.41 -0.34 7.82 0 0 Z M-13 25 C-12 27 -12 27 -12 27 Z " fill="#11110F" transform="translate(775,214)"/>
<path d="M0 0 C0.66 0.66 1.32 1.32 2 2 C1.9850619 4.4550186 1.85281588 6.79182338 1.6328125 9.23046875 C0.90808619 18.9700208 0.84788732 28.67151765 0.86962891 38.43432617 C0.87507755 41.35405466 0.86960047 44.27363499 0.86328125 47.19335938 C0.86394068 49.06250034 0.86521904 50.93164121 0.8671875 52.80078125 C0.86516327 53.66737869 0.86313904 54.53397614 0.86105347 55.42683411 C0.86420563 56.23255356 0.86735779 57.03827301 0.87060547 57.8684082 C0.87140106 58.57214066 0.87219666 59.27587311 0.87301636 60.00093079 C1.00658754 62.10370583 1.4283509 63.97589265 2 66 C2.598125 65.67 3.19625 65.34 3.8125 65 C6 64 6 64 9 64 C9.33 65.65 9.66 67.3 10 69 C3.74042512 71.91116258 -2.50010403 74.66984861 -9 77 C-11.02350324 73.96474514 -11.32124018 72.80573798 -11.625 69.3125 C-11.69976563 68.50425781 -11.77453125 67.69601563 -11.8515625 66.86328125 C-11.90054688 66.24839844 -11.94953125 65.63351563 -12 65 C-12.47308594 65.38671875 -12.94617188 65.7734375 -13.43359375 66.171875 C-20.18894887 71.49188176 -27.024695 75.92296589 -35.92578125 75.44140625 C-39.69610534 74.63905856 -41.50688557 72.84927364 -44 70 C-51.14438059 57.11209775 -48.00001246 39.18305953 -47 25.25 C-46.90326834 23.85940121 -46.80691202 22.46877625 -46.7109375 21.078125 C-46.4776285 17.71847536 -46.24057809 14.35913559 -46 11 C-47.65 11.33 -49.3 11.66 -51 12 C-51.33 10.35 -51.66 8.7 -52 7 C-48.5239874 5.5427243 -45.07926452 4.40492284 -41.4375 3.4375 C-40.50808594 3.18871094 -39.57867188 2.93992187 -38.62109375 2.68359375 C-36.4171509 2.10879494 -34.21115549 1.54628548 -32 1 C-31.85736237 5.53468783 -32.20070817 9.5721034 -33.06762695 14.05126953 C-34.76353966 22.92057699 -35.30226527 31.59988716 -35.3125 40.625 C-35.31765625 41.71466064 -35.3228125 42.80432129 -35.328125 43.92700195 C-35.26197588 51.60679668 -34.8956408 59.19616469 -31 66 C-29.29708319 67.11605077 -29.29708319 67.11605077 -27 67 C-21.58865597 65.32740275 -17.88007861 63.04013756 -15 58 C-10.52860266 47.04507652 -10.86297659 35.56888469 -10.9375 23.9375 C-10.94252686 22.58138187 -10.94708766 21.22526192 -10.95117188 19.86914062 C-10.96287921 16.57938006 -10.97927789 13.28971406 -11 10 C-13.31 10.33 -15.62 10.66 -18 11 C-18 9.35 -18 7.7 -18 6 C-17.35933594 5.89042969 -16.71867188 5.78085938 -16.05859375 5.66796875 C-7.39236062 4.32250404 -7.39236062 4.32250404 0 0 Z " fill="#795B50" transform="translate(754,103)"/>
<path d="M0 0 C1.58990623 0.90486625 3.16638421 1.8338513 4.7265625 2.7890625 C6.59743563 4.04568029 6.59743563 4.04568029 8.6796875 3.8828125 C9.3396875 2.8928125 9.9996875 1.9028125 10.6796875 0.8828125 C13.734375 0.15234375 13.734375 0.15234375 17.5546875 -0.3046875 C18.55157593 -0.42529541 18.55157593 -0.42529541 19.56860352 -0.54833984 C25.60741634 -1.22468688 31.60744654 -1.3207263 37.6796875 -1.1171875 C38.3396875 1.8528125 38.9996875 4.8228125 39.6796875 7.8828125 C37.3046875 8.9453125 37.3046875 8.9453125 34.6796875 9.8828125 C34.0196875 9.5528125 33.3596875 9.2228125 32.6796875 8.8828125 C32.3496875 9.8728125 32.0196875 10.8628125 31.6796875 11.8828125 C31.3496875 11.8828125 31.0196875 11.8828125 30.6796875 11.8828125 C30.3496875 24.7528125 30.0196875 37.6228125 29.6796875 50.8828125 C26.3966777 52.5243174 23.25423717 51.40169874 19.6796875 50.8828125 C18.48392701 43.08524833 18.34365469 35.25462726 18.1171875 27.3828125 C18.07391013 25.97394777 18.03029319 24.56509343 17.98632812 23.15625 C17.88078179 19.7318579 17.77866952 16.30739958 17.6796875 12.8828125 C14.7096875 11.8928125 11.7396875 10.9028125 8.6796875 9.8828125 C8.8859375 10.9140625 9.0921875 11.9453125 9.3046875 13.0078125 C9.69163153 17.0062341 9.19851826 19.21975007 7.6796875 22.8828125 C5.3671875 23.5078125 5.3671875 23.5078125 2.6796875 23.8828125 C-0.3203125 21.8828125 -0.3203125 21.8828125 -2.3203125 19.8828125 C-2.36197252 17.5498511 -2.36197252 15.2157739 -2.3203125 12.8828125 C-2.6503125 12.2228125 -2.9803125 11.5628125 -3.3203125 10.8828125 C-4.9703125 11.2128125 -6.6203125 11.5428125 -8.3203125 11.8828125 C-8.3203125 14.6306969 -8.27339437 16.35485204 -7.3203125 18.8828125 C-4.91410753 21.27178927 -2.14486743 23.02387324 0.6796875 24.8828125 C4.86636884 28.02054318 8.17246884 30.63897223 9.015625 36.03125 C9.11159695 41.50165115 8.36913248 44.57846002 4.6796875 48.8828125 C1.38394296 51.77907285 -1.22430405 52.77941548 -5.6328125 53.1953125 C-11.26298368 52.71817935 -14.46889156 50.03181791 -18.0703125 45.8828125 C-22.3203125 40.21614583 -22.3203125 40.21614583 -22.3203125 35.8828125 C-16.5703125 32.8828125 -16.5703125 32.8828125 -14.3203125 32.8828125 C-13.06640625 34.59765625 -13.06640625 34.59765625 -11.7578125 36.8203125 C-10.2452718 39.50986703 -10.2452718 39.50986703 -8.3203125 41.8828125 C-6.65414135 41.92345082 -4.98643155 41.9255335 -3.3203125 41.8828125 C-3.23804582 38.83894526 -3.34423033 36.81105902 -4.3203125 33.8828125 C-6.14595312 32.84184278 -6.14595312 32.84184278 -8.3203125 31.8828125 C-18.41967561 25.09155966 -18.41967561 25.09155966 -20.3203125 18.8828125 C-21.06944601 13.4868798 -20.39667977 9.4973634 -17.3203125 4.8828125 C-12.40507066 -0.08614783 -6.84581334 -3.29613235 0 0 Z " fill="#11100F" transform="translate(569.3203125,215.1171875)"/>
<path d="M0 0 C6.63952974 5.16251571 9.39137699 11.7683949 10.77734375 19.921875 C12.1566352 32.23332829 11.75004378 47.33176906 4.09375 57.74609375 C-2.68560115 65.01250508 -9.42258016 69.03091602 -19.42578125 69.7421875 C-27.14178939 69.75433869 -33.95526747 66.63706136 -39.44921875 61.2265625 C-46.71760187 52.80717443 -47.43443432 41.94863629 -47.21484375 31.17578125 C-46.26744216 20.64643189 -43.47111491 10.42557782 -35.90625 2.74609375 C-25.36383656 -5.2924965 -11.49930961 -7.56409505 0 0 Z M-29.90625 8.74609375 C-36.04648885 21.99980815 -36.90269095 37.09087897 -32.1875 50.8828125 C-30.16019034 55.41335511 -27.47090574 59.46376588 -22.90625 61.74609375 C-17.99803869 62.22822079 -13.48595695 62.48553104 -8.96875 60.37109375 C-1.87032514 51.33673483 0.16033581 37.96985825 -0.90625 26.74609375 C-2.31277907 18.2453195 -4.07326545 8.65662539 -10.90625 2.74609375 C-19.28311514 -0.04619463 -24.62376287 1.75353319 -29.90625 8.74609375 Z " fill="#795B50" transform="translate(679.90625,109.25390625)"/>
<path d="M0 0 C0.66 0.66 1.32 1.32 2 2 C1.34 2.99 0.68 3.98 0 5 C-2.80672224 5.41727482 -5.53580739 5.43946353 -8.37109375 5.49609375 C-11.08002566 5.76885654 -11.08002566 5.76885654 -12.77734375 7.69921875 C-17.07908669 15.79419188 -16.46537702 27.08961704 -17 36 C-12.38 36 -7.76 36 -3 36 C-2.505 37.98 -2.505 37.98 -2 40 C-4 42 -4 42 -6.0234375 42.23046875 C-6.79945313 42.21628906 -7.57546875 42.20210937 -8.375 42.1875 C-9.14585937 42.18105469 -9.91671875 42.17460938 -10.7109375 42.16796875 C-12.9229377 42.00565474 -14.86164205 41.56368757 -17 41 C-16.99032196 42.00731674 -16.98064392 43.01463348 -16.97067261 44.05247498 C-16.88577897 53.57125376 -16.85384705 63.0889533 -16.87302971 72.60810757 C-16.88120863 77.50160817 -16.8710895 82.39361183 -16.81835938 87.28686523 C-16.76810206 92.01434158 -16.76694742 96.73957111 -16.79904556 101.46718025 C-16.8027809 103.2656242 -16.78917655 105.06419491 -16.75750351 106.86236382 C-16.52831652 120.8255328 -16.52831652 120.8255328 -20.16558838 126.19973755 C-22.70093681 128.62035604 -24.83600315 130.49094982 -28 132 C-30.32345581 131.70384216 -30.32345581 131.70384216 -32 131 C-31.86722656 130.05125 -31.73445312 129.1025 -31.59765625 128.125 C-27.84967002 99.94779541 -28.88560238 71.35653035 -29 43 C-32.63 42.67 -36.26 42.34 -40 42 C-39 38 -39 38 -38 37 C-36.31391034 36.92794489 -34.62499341 36.91613932 -32.9375 36.9375 C-32.01839844 36.94652344 -31.09929688 36.95554688 -30.15234375 36.96484375 C-29.44207031 36.97644531 -28.73179687 36.98804688 -28 37 C-28.01571045 36.33991943 -28.0314209 35.67983887 -28.04760742 34.99975586 C-28.11036688 31.97909273 -28.14911983 28.9585673 -28.1875 25.9375 C-28.22520508 24.37999023 -28.22520508 24.37999023 -28.26367188 22.79101562 C-28.33706286 15.08496208 -27.8381333 9.90263633 -22.25 4.1875 C-15.45581209 -0.3855111 -8.01224433 -0.82675662 0 0 Z " fill="#7A5C50" transform="translate(627,69)"/>
<path d="M0 0 C-0.60785403 8.73390265 -1.68141666 17.3459967 -3 26 C3.36559573 25.50873071 9.69264693 25.00344253 16 24 C15.67 25.98 15.34 27.96 15 30 C11.15158652 31.18031238 7.241721 31.33235351 3.25 31.5625 C2.55261719 31.60568359 1.85523438 31.64886719 1.13671875 31.69335938 C-0.57531922 31.79889596 -2.28763561 31.8998991 -4 32 C-4.06058594 33.13695312 -4.12117188 34.27390625 -4.18359375 35.4453125 C-4.26802782 37.00521924 -4.35267945 38.56511422 -4.4375 40.125 C-4.50408813 41.36080811 -4.50408813 41.36080811 -4.57202148 42.62158203 C-4.8344518 47.38037987 -5.16479307 52.12524292 -5.5625 56.875 C-5.97817504 62.70807931 -6.17241729 68.52900882 -6.25 74.375 C-6.2713501 75.20757324 -6.2927002 76.04014648 -6.31469727 76.89794922 C-6.34604244 82.58909264 -5.48852426 86.84852222 -3 92 C-1.515 92.495 -1.515 92.495 0 93 C2.41102332 91.72873316 4.6874917 90.42429489 7 89 C8.32646156 88.3197633 9.65608877 87.64507739 11 87 C11.99 87.66 12.98 88.32 14 89 C14 89.99 14 90.98 14 92 C11.73103368 93.31582063 9.45996813 94.62775236 7.1875 95.9375 C6.54490234 96.31068359 5.90230469 96.68386719 5.24023438 97.06835938 C-0.0696977 100.12225813 -3.80763902 101.64058907 -10 101 C-15.0920032 97.41245229 -16.86291849 92.9127228 -18 87 C-18.45603756 77.19594011 -17.85084127 67.36365248 -17.20043945 57.58105469 C-17.06075266 55.4736383 -16.92930284 53.36581744 -16.79882812 51.2578125 C-16.40691867 45.12816048 -15.92878413 39.07719346 -15 33 C-18.96 33 -22.92 33 -27 33 C-27 28 -27 28 -26 27 C-23.98405418 26.76572222 -21.961526 26.58663876 -19.9375 26.4375 C-18.28041016 26.31181641 -18.28041016 26.31181641 -16.58984375 26.18359375 C-15.73519531 26.12300781 -14.88054687 26.06242187 -14 26 C-13.98654541 25.39003174 -13.97309082 24.78006348 -13.95922852 24.15161133 C-13.87222745 21.36837068 -13.71807497 18.59271619 -13.5625 15.8125 C-13.54251953 14.85279297 -13.52253906 13.89308594 -13.50195312 12.90429688 C-13.04374488 5.93470832 -13.04374488 5.93470832 -9.99951172 3.20849609 C-6.54385848 1.22333359 -4.01973451 0 0 0 Z " fill="#7A5C50" transform="translate(439,79)"/>
<path d="M0 0 C-0.57634139 4.75481646 -2.55068521 7.97048212 -5 12 C-7.475 11.505 -7.475 11.505 -10 11 C-10 9.68 -10 8.36 -10 7 C-13.72820746 4.51452836 -17.66878733 4.27071984 -22 5 C-24.47989431 6.78043694 -25.58711888 8.17423775 -26.9375 10.875 C-27.07497023 15.54898792 -24.2316505 18.9746482 -21.1875 22.25 C-17.21383913 26.09602722 -12.6808168 29.16550018 -8.06323242 32.18457031 C-2.55064992 35.91625882 0.89966786 40.24916965 3.375 46.4375 C4.27970114 51.59429652 3.97454549 55.72606053 1.875 60.625 C-2.0239968 65.56372928 -6.9354921 70.11579126 -13.2265625 71.484375 C-21.86782099 72.44138734 -29.38425706 71.40911433 -37 67 C-36.25 60.375 -36.25 60.375 -34 57 C-30.56350419 57.6073449 -28.65133861 58.91679209 -25.9375 61.0625 C-20.71492672 64.70959701 -16.18073 64.62384938 -10 64 C-7.6020101 58.21661259 -8.10225388 54.10758271 -9.8125 48.1875 C-11.26091965 45.51935854 -12.31870129 45.30240532 -15 44 C-17.92910482 41.84898446 -20.70085902 39.50427628 -23.5 37.1875 C-24.25925781 36.57068359 -25.01851562 35.95386719 -25.80078125 35.31835938 C-30.20961874 31.68550817 -34.39872892 28.20254217 -37 23 C-37.50178565 16.55398432 -37.96229274 10.41513341 -34 5 C-24.68460708 -3.91037584 -11.73053656 -5.27336047 0 0 Z " fill="#795B50" transform="translate(576,107)"/>
<path d="M0 0 C1.14661023 3.43983068 0.94215088 5.59673435 0.66015625 9.20703125 C0.56425272 10.56346388 0.46977485 11.91999782 0.37646484 13.27661133 C0.32496277 14.01118561 0.27346069 14.74575989 0.22039795 15.50259399 C-1.09656949 34.76865175 -1.17588939 54.01239698 -1.125 73.3125 C-1.12322124 74.02241215 -1.12144249 74.7323243 -1.11960983 75.46374893 C-1.09640186 84.30925858 -1.05655841 93.15463652 -1 102 C3.455 101.01 3.455 101.01 8 100 C8.33 101.65 8.66 103.3 9 105 C7.31970703 105.50660156 7.31970703 105.50660156 5.60546875 106.0234375 C4.13273364 106.47370046 2.66008169 106.92423553 1.1875 107.375 C0.44951172 107.59671875 -0.28847656 107.8184375 -1.04882812 108.046875 C-1.76103516 108.26601562 -2.47324219 108.48515625 -3.20703125 108.7109375 C-3.8616333 108.90993652 -4.51623535 109.10893555 -5.19067383 109.31396484 C-7.29355136 110.03415708 -7.29355136 110.03415708 -10 112 C-12.1875 111.625 -12.1875 111.625 -14 111 C-13.97494385 110.08790771 -13.9498877 109.17581543 -13.92407227 108.23608398 C-13.27383084 84.13881504 -12.80998347 60.04043549 -12.4375 35.9375 C-12.4263982 35.21925426 -12.4152964 34.50100853 -12.40385818 33.76099777 C-12.26625378 24.84070975 -12.13168627 15.92037746 -12 7 C-13.15048828 7.49113281 -13.15048828 7.49113281 -14.32421875 7.9921875 C-17.09718753 9.03660494 -19.06773447 9.16755803 -22 9 C-22 7.35 -22 5.7 -22 4 C-20.33710937 3.81824219 -20.33710937 3.81824219 -18.640625 3.6328125 C-17.17703766 3.46393704 -15.71349843 3.29464428 -14.25 3.125 C-13.52039063 3.04636719 -12.79078125 2.96773438 -12.0390625 2.88671875 C-7.90467115 2.39810886 -3.89733169 0 0 0 Z " fill="#795B50" transform="translate(793,69)"/>
<path d="M0 0 C3.2138627 1.60693135 5.16978419 2.94336169 7.375 5.75 C8.78300142 10.81880512 8.72895954 14.57011783 6.375 19.1875 C3.78294442 22.2570395 1.17272948 24.54834541 -2 27 C-1.80528889 28.94999129 -1.80528889 28.94999129 -1 31 C0.9837767 32.28436734 0.9837767 32.28436734 3 33 C4.32 32.01 5.64 31.02 7 30 C9.86207152 31.28299758 12.0245088 32.530636 14 35 C14 38 14 38 12 40.1875 C11.34 40.785625 10.68 41.38375 10 42 C10.33 42.99 10.66 43.98 11 45 C11.99 45.33 12.98 45.66 14 46 C12.60667426 49.36720387 11.0210714 50.9859524 8 53 C4 51 4 51 2.1875 49.8125 C-1.04389482 48.61226764 -3.61339095 49.45377273 -7 50 C-12.14654894 50.44858984 -15.8392813 50.60108647 -20.5 48.1875 C-23.80271384 45.29762539 -24.89534414 43.68607731 -25.5625 39.3125 C-25.5410944 36.37993221 -25.24291238 35.28831657 -23.328125 33.015625 C-22.66296875 32.37109375 -21.9978125 31.7265625 -21.3125 31.0625 C-19.32265534 29.16186703 -19.32265534 29.16186703 -18 27 C-18.273961 24.44452772 -19.09231741 22.57290732 -20.140625 20.234375 C-21.58474394 16.47966576 -20.90689476 13.88669185 -20 10 C-15.97155587 1.13742291 -9.04345556 -1.01253413 0 0 Z M-8.6875 10.0625 C-10.65926927 12.97320702 -10.19356822 15.58029471 -10 19 C-9.01 19.495 -9.01 19.495 -8 20 C-4.17972549 17.37432168 -4.17972549 17.37432168 -2.0625 13.375 C-2.041875 12.59125 -2.02125 11.8075 -2 11 C-2.66 10.34 -3.32 9.68 -4 9 C-6.90923892 8.73359337 -6.90923892 8.73359337 -8.6875 10.0625 Z M-15 37 C-14.67 38.32 -14.34 39.64 -14 41 C-12.02 40.67 -10.04 40.34 -8 40 C-8.33 39.34 -8.66 38.68 -9 38 C-12.02934491 37.34227572 -12.02934491 37.34227572 -15 37 Z " fill="#111110" transform="translate(451,216)"/>
<path d="M0 0 C4.36347018 3.43507227 5.59255817 5.78490049 6.8125 11.1875 C7.20687869 15.55031422 6.10686389 18.47995713 3.9375 22.3125 C2.31097684 24.01836575 0.64743434 25.6902546 -1.0625 27.3125 C-1.76810494 28.62564275 -2.44305927 29.95658134 -3.0625 31.3125 C-2.72927734 31.7564209 -2.39605469 32.2003418 -2.05273438 32.65771484 C-0.55104282 34.66399576 0.94329094 36.67564112 2.4375 38.6875 C3.22447266 39.73550781 3.22447266 39.73550781 4.02734375 40.8046875 C4.77177734 41.81015625 4.77177734 41.81015625 5.53125 42.8359375 C5.99208984 43.45388184 6.45292969 44.07182617 6.92773438 44.70849609 C7.9375 46.3125 7.9375 46.3125 7.9375 48.3125 C6.40625 49.6015625 6.40625 49.6015625 4.4375 50.9375 C3.7878125 51.38351562 3.138125 51.82953125 2.46875 52.2890625 C1.9634375 52.62679687 1.458125 52.96453125 0.9375 53.3125 C-3.31524469 49.44636846 -6.30021962 45.14997072 -9.4140625 40.32421875 C-9.95804687 39.66035156 -10.50203125 38.99648437 -11.0625 38.3125 C-12.0525 38.3125 -13.0425 38.3125 -14.0625 38.3125 C-14.3925 42.6025 -14.7225 46.8925 -15.0625 51.3125 C-22.77734375 51.41015625 -22.77734375 51.41015625 -25.0625 51.3125 C-26.73183784 49.64316216 -26.19255558 47.62772794 -26.1953125 45.3359375 C-26.19724609 44.2826123 -26.19917969 43.22928711 -26.20117188 42.14404297 C-26.19666016 41.00338379 -26.19214844 39.86272461 -26.1875 38.6875 C-26.18556641 37.53008301 -26.18363281 36.37266602 -26.18164062 35.18017578 C-26.1262346 23.87580729 -25.67241273 12.59912979 -25.0625 1.3125 C-16.99656029 -1.63557738 -8.12999001 -4.22828233 0 0 Z M-14.0625 11.3125 C-14.42710453 13.97903905 -14.42710453 13.97903905 -14.25 16.9375 C-14.22292969 17.94039062 -14.19585937 18.94328125 -14.16796875 19.9765625 C-14.13316406 20.74742187 -14.09835937 21.51828125 -14.0625 22.3125 C-10.00515015 22.7392896 -10.00515015 22.7392896 -7.4375 20.125 C-5.21125017 17.48865151 -3.95658785 15.62062505 -3.0625 12.3125 C-3.3925 11.6525 -3.7225 10.9925 -4.0625 10.3125 C-9.34198004 9.03441117 -9.34198004 9.03441117 -14.0625 11.3125 Z M-13.0625 35.3125 C-12.0625 37.3125 -12.0625 37.3125 -12.0625 37.3125 Z " fill="#111110" transform="translate(509.0625,215.6875)"/>
<path d="M0 0 C1.69141656 0.08963062 3.37959602 0.24577676 5.0625 0.4375 C6.44115234 0.59025391 6.44115234 0.59025391 7.84765625 0.74609375 C8.55792969 0.82988281 9.26820313 0.91367188 10 1 C10.02526739 8.24486551 10.0428318 15.48971974 10.05493164 22.73461914 C10.05997356 25.20142033 10.06680691 27.66821852 10.07543945 30.13500977 C10.08751125 33.67204529 10.09322956 37.20904145 10.09765625 40.74609375 C10.10281754 41.85649521 10.10797882 42.96689667 10.11329651 44.11094666 C10.11340981 45.64242088 10.11340981 45.64242088 10.11352539 47.20483398 C10.115746 48.10862289 10.11796661 49.0124118 10.12025452 49.94358826 C10 52 10 52 9 53 C7.47480724 52.91062197 5.95318071 52.75462854 4.4375 52.5625 C3.19806641 52.40974609 3.19806641 52.40974609 1.93359375 52.25390625 C1.29550781 52.17011719 0.65742188 52.08632813 0 52 C-1.25433458 48.23699626 -1.10695422 44.72789091 -1.0625 40.8125 C-1.05798828 40.06291016 -1.05347656 39.31332031 -1.04882812 38.54101562 C-1.03706354 36.69397617 -1.01912865 34.84697787 -1 33 C-3.64 33.33 -6.28 33.66 -9 34 C-9 40.27 -9 46.54 -9 53 C-12.71476377 54.23825459 -15.18828813 53.70587257 -19 53 C-21.98473789 50.01526211 -21.12043055 42.98890294 -21.13894653 38.87205505 C-21.1369223 38.13955032 -21.13489807 37.40704559 -21.1328125 36.65234375 C-21.13376923 35.87742081 -21.13472595 35.10249786 -21.13571167 34.30409241 C-21.13638818 32.67627887 -21.13457106 31.04846256 -21.13037109 29.4206543 C-21.12500796 26.94118149 -21.13033786 24.46188919 -21.13671875 21.98242188 C-21.13605802 20.39322877 -21.13477695 18.80403578 -21.1328125 17.21484375 C-21.13483673 16.48031479 -21.13686096 15.74578583 -21.13894653 14.98899841 C-21.1204216 10.88868576 -20.79549337 7.02288977 -20 3 C-18.52093108 2.97310784 -17.04172517 2.95365379 -15.5625 2.9375 C-14.73878906 2.92589844 -13.91507812 2.91429687 -13.06640625 2.90234375 C-11 3 -11 3 -10 4 C-9.91330568 5.4887186 -9.89296506 6.981445 -9.90234375 8.47265625 C-9.90556641 9.37177734 -9.90878906 10.27089844 -9.91210938 11.19726562 C-9.92048828 12.14279297 -9.92886719 13.08832031 -9.9375 14.0625 C-9.94201172 15.01189453 -9.94652344 15.96128906 -9.95117188 16.93945312 C-9.96299872 19.29299531 -9.98093479 21.64650532 -10 24 C-7.03 23.67 -4.06 23.34 -1 23 C-1.00785522 22.00818726 -1.00785522 22.00818726 -1.01586914 20.99633789 C-1.03657656 18.01840149 -1.04964012 15.04048018 -1.0625 12.0625 C-1.07087891 11.02158203 -1.07925781 9.98066406 -1.08789062 8.90820312 C-1.09272461 7.42416992 -1.09272461 7.42416992 -1.09765625 5.91015625 C-1.10551147 4.53549194 -1.10551147 4.53549194 -1.11352539 3.13305664 C-1 1 -1 1 0 0 Z " fill="#111110" transform="translate(275,213)"/>
<path d="M0 0 C1.01675595 3.05026786 1.04771845 4.74123765 0.87890625 7.90625 C0.83032471 8.9382251 0.78174316 9.9702002 0.73168945 11.03344727 C0.64794067 12.74939087 0.64794067 12.74939087 0.5625 14.5 C-0.62887708 43.32134912 -0.9360235 72.2761637 2 101 C-0.9543422 102.83426116 -3.80533543 104.46363498 -7.0625 105.6875 C-7.71347656 105.93886719 -8.36445313 106.19023437 -9.03515625 106.44921875 C-11 107 -11 107 -15 107 C-16.32875406 103.01373782 -15.16234946 101.00658726 -13.7890625 97.15625 C-11.4761322 87.9045288 -11.84028315 78.10866788 -11.83203125 68.63671875 C-11.82880599 67.27350329 -11.82544104 65.91028816 -11.82194519 64.54707336 C-11.81600089 61.70560912 -11.81410044 58.86417508 -11.81469727 56.02270508 C-11.8147987 52.42253694 -11.80114487 48.82256685 -11.78392506 45.22244549 C-11.77268332 42.41076304 -11.77078173 39.59912668 -11.77130699 36.78742409 C-11.7695894 34.82805026 -11.75883152 32.86869081 -11.74775696 30.90934753 C-11.76909825 22.41379999 -12.5863626 14.37367039 -14 6 C-2.25 0 -2.25 0 0 0 Z " fill="#7A5C51" transform="translate(518,73)"/>
<path d="M0 0 C5.36411996 4.32109663 7.95585726 9.12609584 9.25 15.8125 C10.2025098 27.56441145 9.45022676 37.86121069 1.78515625 47.18359375 C-1.34231741 50.50205817 -3.60480369 51.66404863 -8.125 52.25 C-13.08482859 51.6514 -16.82796035 50.22400317 -20.0078125 46.234375 C-25.45627333 37.27468386 -26.08716506 27.10346572 -24.21484375 16.89453125 C-22.32108462 10.05423189 -19.15358179 4.51884543 -13.75 -0.1875 C-8.97635638 -1.77871454 -4.59983145 -1.98629085 0 0 Z M-11.75 11.8125 C-13.68485849 16.90117784 -14.06129109 21.53366878 -14 26.9375 C-14.00773437 27.62714844 -14.01546875 28.31679687 -14.0234375 29.02734375 C-14.00353478 34.23190448 -13.49546715 38.06703285 -9.75 41.8125 C-7.72922654 41.87151922 -7.72922654 41.87151922 -5.75 40.8125 C-0.5122304 33.82880719 -1.33901471 25.14689936 -1.75 16.8125 C-2.20867395 14.29178752 -2.83597674 12.21181106 -3.75 9.8125 C-6.87341539 9.8125 -8.92536624 10.45902966 -11.75 11.8125 Z " fill="#10100F" transform="translate(313.75,216.1875)"/>
<path d="M0 0 C1.74991334 -0.02715383 3.49994945 -0.04646551 5.25 -0.0625 C6.71179688 -0.07990234 6.71179688 -0.07990234 8.203125 -0.09765625 C10.65758678 -0.01195577 12.66168914 0.29293934 15 1 C17.29612756 10.41002278 17.29612756 10.41002278 17 15 C17.66 15 18.32 15 19 15 C19.07238892 15.86310791 19.07238892 15.86310791 19.14624023 16.74365234 C19.78639153 23.76794004 20.8677286 30.67590554 22.0625 37.625 C22.24876953 38.72457031 22.43503906 39.82414062 22.62695312 40.95703125 C23.08164456 43.63854486 23.53937904 46.31949973 24 49 C21.00468461 49.99843846 19.82744268 50.00732761 16.8125 49.5625 C14.9253125 49.2840625 14.9253125 49.2840625 13 49 C11.68373308 45.38026598 11 42.90432869 11 39 C8.69 39 6.38 39 4 39 C3.67 39.99 3.34 40.98 3 42 C2.34 42.99 1.68 43.98 1 45 C0.33841957 47.04584079 0.33841957 47.04584079 -0.125 49.1875 C-0.558125 51.0746875 -0.558125 51.0746875 -1 53 C-4.63 52.67 -8.26 52.34 -12 52 C-11.35324159 45.69330109 -10.06479465 39.73100417 -8.49609375 33.59375 C-8.2533522 32.6284436 -8.01061066 31.66313721 -7.76051331 30.6685791 C-6.99061985 27.61124427 -6.21416883 24.55561987 -5.4375 21.5 C-4.91167393 19.41677653 -4.38627886 17.33344422 -3.86132812 15.25 C-2.57920182 10.16539701 -1.29169968 5.08217889 0 0 Z M7 23 C5.45833358 24.37485532 5.45833358 24.37485532 4 26 C4 26.66 4 27.32 4 28 C4.66 28 5.32 28 6 28 C6 28.66 6 29.32 6 30 C6.99 30 7.98 30 9 30 C9 28.02 9 26.04 9 24 C8.34 23.67 7.68 23.34 7 23 Z " fill="#111010" transform="translate(616,216)"/>
<path d="M0 0 C1.64630328 0.14042877 3.29204179 0.28749329 4.9375 0.4375 C6.31228516 0.55931641 6.31228516 0.55931641 7.71484375 0.68359375 C10 1 10 1 11 2 C11.1383017 4.41579679 11.21313681 6.80090729 11.23828125 9.21875 C11.246353 9.95065552 11.25442474 10.68256104 11.26274109 11.43664551 C11.27660581 12.99354675 11.28731723 14.55047869 11.29516602 16.10742188 C11.31223087 18.46285213 11.35607248 20.81682344 11.40039062 23.171875 C11.50021894 32.85135449 10.45072454 39.76825634 5.0625 47.9375 C2.15970911 50.84029089 0.05402577 51.89942623 -4.07421875 52.1015625 C-9.37027977 51.86778052 -12.53005631 50.4254097 -16.4921875 46.9609375 C-21.3961389 40.58325977 -21.41728833 34.57152201 -21.25 26.8125 C-21.23831787 25.79325439 -21.22663574 24.77400879 -21.21459961 23.72387695 C-20.92702793 4.85405586 -20.92702793 4.85405586 -19 1 C-15.7 1.33 -12.4 1.66 -9 2 C-9.01571045 3.55895996 -9.01571045 3.55895996 -9.03173828 5.14941406 C-9.06797936 9.01086981 -9.09091541 12.87231057 -9.10986328 16.73388672 C-9.1199115 18.40415985 -9.13355236 20.07441542 -9.15087891 21.74462891 C-9.17517926 24.14750504 -9.18649487 26.55014827 -9.1953125 28.953125 C-9.20563507 29.69806213 -9.21595764 30.44299927 -9.22659302 31.21051025 C-9.22740368 34.96927642 -9.10367118 37.81173711 -7 41 C-5.35 41 -3.7 41 -2 41 C-1.08160362 36.2478707 -0.79338686 31.58387946 -0.68359375 26.7578125 C-0.66281265 25.98944061 -0.64203156 25.22106873 -0.62062073 24.42941284 C-0.55566531 21.99469233 -0.49649362 19.55987153 -0.4375 17.125 C-0.3942633 15.4661358 -0.35064743 13.80728144 -0.30664062 12.1484375 C-0.20003997 8.09905896 -0.0986233 4.04958037 0 0 Z " fill="#111110" transform="translate(664,215)"/>
<path d="M0 0 C0 3.3 0 6.6 0 10 C-4.62 10.33 -9.24 10.66 -14 11 C-14.33 14.3 -14.66 17.6 -15 21 C-13.68 20.67 -12.36 20.34 -11 20 C-9.58465222 19.93543121 -8.16662311 19.91388961 -6.75 19.9375 C-4.89375 19.9684375 -4.89375 19.9684375 -3 20 C-2.34 23.3 -1.68 26.6 -1 30 C-1.84304688 30.06058594 -2.68609375 30.12117188 -3.5546875 30.18359375 C-4.65039062 30.26738281 -5.74609375 30.35117188 -6.875 30.4375 C-8.51082031 30.55931641 -8.51082031 30.55931641 -10.1796875 30.68359375 C-12.94728971 30.83001703 -12.94728971 30.83001703 -15 32 C-15 34.97 -15 37.94 -15 41 C-8.07 40.01 -8.07 40.01 -1 39 C0.4783226 41.95664519 0.06032783 44.74229737 0 48 C-8.83506953 52.0007862 -16.55083409 51.38507271 -26 50 C-26.02477942 44.12842107 -26.04289766 38.25687282 -26.05493164 32.38525391 C-26.05995022 30.38915476 -26.06676651 28.39305927 -26.07543945 26.39697266 C-26.08761356 23.52245174 -26.09325316 20.64797956 -26.09765625 17.7734375 C-26.10281754 16.88570648 -26.10797882 15.99797546 -26.11329651 15.08334351 C-26.11369618 10.63627461 -26.0957691 6.34071532 -25 2 C-17.90928468 -1.54535766 -7.68731437 -0.09841512 0 0 Z " fill="#121111" transform="translate(546,216)"/>
<path d="M0 0 C0 3.3 0 6.6 0 10 C-4.62 10.33 -9.24 10.66 -14 11 C-14.33 14.3 -14.66 17.6 -15 21 C-13.68 20.67 -12.36 20.34 -11 20 C-9.58465222 19.93543121 -8.16662311 19.91388961 -6.75 19.9375 C-4.89375 19.9684375 -4.89375 19.9684375 -3 20 C-2.63720544 21.28926992 -2.28503302 22.58153272 -1.9375 23.875 C-1.74027344 24.59429687 -1.54304688 25.31359375 -1.33984375 26.0546875 C-1 28 -1 28 -2 30 C-6.29 30 -10.58 30 -15 30 C-15.33 33.63 -15.66 37.26 -16 41 C-13.40125 40.505 -13.40125 40.505 -10.75 40 C-7.35538361 39.3534064 -4.47976503 39 -1 39 C-0.67 41.97 -0.34 44.94 0 48 C-9.17481529 51.5515414 -16.34997964 51.40779423 -26 50 C-26.02481154 44.28914706 -26.04291275 38.57832586 -26.05493164 32.86743164 C-26.05994485 30.92667087 -26.06675712 28.98591384 -26.07543945 27.04516602 C-26.08763732 24.24754916 -26.09325855 21.44998245 -26.09765625 18.65234375 C-26.10281754 17.7916478 -26.10797882 16.93095184 -26.11329651 16.04417419 C-26.11373655 11.26496408 -25.98052402 6.68833596 -25 2 C-17.90928468 -1.54535766 -7.68731437 -0.09841512 0 0 Z " fill="#121111" transform="translate(381,216)"/>
<path d="M0 0 C-0.0714624 0.77609619 -0.1429248 1.55219238 -0.21655273 2.35180664 C-1.25765422 15.37148544 -1.11053216 28.38453283 -1.0625 41.4375 C-1.05747395 43.82617093 -1.052913 46.2148429 -1.04882812 48.60351562 C-1.03791244 54.40236648 -1.0212623 60.20117833 -1 66 C1.97 65.01 1.97 65.01 5 64 C5.33 65.32 5.66 66.64 6 68 C-0.16396888 71.25643639 -6.41416719 73.72401366 -13 76 C-14 75 -14 75 -14.11352539 72.45678711 C-14.10828857 71.3250708 -14.10305176 70.19335449 -14.09765625 69.02734375 C-14.09435303 67.74931885 -14.0910498 66.47129395 -14.08764648 65.15454102 C-14.08352753 64.46740021 -14.07940857 63.7802594 -14.07516479 63.07229614 C-14.06245323 60.92961635 -14.05589911 58.7869981 -14.05102539 56.64428711 C-14.03762037 51.32227413 -14.01340907 46.00031956 -13.98962402 40.67834473 C-13.96994672 36.18409562 -13.95428378 31.68986801 -13.94406128 27.19558716 C-13.93755026 25.07883878 -13.92504186 22.96217808 -13.91235352 20.84545898 C-13.90905029 19.56743408 -13.90574707 18.28940918 -13.90234375 16.97265625 C-13.89710693 15.84093994 -13.89187012 14.70922363 -13.88647461 13.54321289 C-13.71049197 11.0645512 -13.71049197 11.0645512 -15 10 C-16.66617115 9.95936168 -18.33388095 9.957279 -20 10 C-19.67 8.35 -19.34 6.7 -19 5 C-18.34773438 4.89042969 -17.69546875 4.78085938 -17.0234375 4.66796875 C-11.29149728 3.62810349 -5.52851049 0 0 0 Z " fill="#785B4F" transform="translate(397,104)"/>
<path d="M0 0 C0.66 3.3 1.32 6.6 2 10 C-3 11 -3 11 -5 10 C-5 10.66 -5 11.32 -5 12 C-5.99 12.495 -5.99 12.495 -7 13 C-6.99214478 14.71884399 -6.99214478 14.71884399 -6.98413086 16.47241211 C-6.96608283 20.70840682 -6.95456872 24.94439812 -6.94506836 29.18041992 C-6.94002769 31.01668875 -6.93319523 32.85295354 -6.92456055 34.68920898 C-6.91248328 37.32276401 -6.90676919 39.95626616 -6.90234375 42.58984375 C-6.89718246 43.41588608 -6.89202118 44.24192841 -6.88670349 45.09300232 C-6.88650795 47.06236368 -6.93795848 49.03161614 -7 51 C-8 52 -8 52 -10.03125 52.1328125 C-10.8459375 52.13023437 -11.660625 52.12765625 -12.5 52.125 C-13.3146875 52.12757813 -14.129375 52.13015625 -14.96875 52.1328125 C-17 52 -17 52 -18 51 C-19.25544824 43.26581886 -19.10391774 35.31129858 -19.125 27.5 C-19.13188843 26.04847534 -19.13188843 26.04847534 -19.13891602 24.56762695 C-19.13690186 23.64812256 -19.1348877 22.72861816 -19.1328125 21.78125 C-19.13168457 20.95689453 -19.13055664 20.13253906 -19.12939453 19.28320312 C-19.00356529 17.06291062 -18.61607713 15.13149227 -18 13 C-20.64 12.67 -23.28 12.34 -26 12 C-27.48320272 8.16112237 -28.22419163 5.93795909 -27 2 C-17.93334877 0.72589092 -9.18124639 -0.25503462 0 0 Z " fill="#111110" transform="translate(351,214)"/>
<path d="M0 0 C3.3 0 6.6 0 10 0 C11 1 11 1 11.02172852 4.60180664 C10.97938278 6.20473749 10.93135787 7.80752426 10.87890625 9.41015625 C10.85529526 10.25219101 10.83168427 11.09422577 10.80735779 11.96177673 C10.73053055 14.66218131 10.64658888 17.36231271 10.5625 20.0625 C10.50929836 21.88865832 10.45655786 23.71483014 10.40429688 25.54101562 C10.27488979 30.02751809 10.13910001 34.51378801 10 39 C15.94 38.505 15.94 38.505 22 38 C23.683989 42.2099725 24.24059853 43.78952566 24 48 C22.02 48 20.04 48 18 48 C18 48.66 18 49.32 18 50 C15.9377952 50.054348 13.87517184 50.09294961 11.8125 50.125 C10.66394531 50.14820313 9.51539063 50.17140625 8.33203125 50.1953125 C5 50 5 50 0 48 C0 32.16 0 16.32 0 0 Z " fill="#11110F" transform="translate(386,216)"/>
<path d="M0 0 C3.31829145 2.61227199 5.4234158 5.1069434 7 9 C7.57548872 14.36624549 7.4573374 19.43967241 5.9375 24.625 C3.88276233 27.1437107 2.363572 28.15257451 -0.83203125 28.8203125 C-6.04049603 29.25200508 -11.70289688 29.37984335 -16.26953125 26.63671875 C-18.73681839 24.30309954 -18.97465968 22.36938392 -19.203125 19.0390625 C-19.21859375 17.91242188 -19.2340625 16.78578125 -19.25 15.625 C-19.27578125 14.50351563 -19.3015625 13.38203125 -19.328125 12.2265625 C-18.78169311 6.85331558 -15.98417009 3.48614883 -12 0 C-7.81874694 -1.39375102 -4.25226961 -1.09856526 0 0 Z M-8 8 C-10.05925681 11.08888522 -10.2390374 11.70935927 -10.125 15.1875 C-10.08375 16.445625 -10.0425 17.70375 -10 19 C-5.89776415 20.01540112 -5.89776415 20.01540112 -2 19 C-1.95875 17.741875 -1.9175 16.48375 -1.875 15.1875 C-1.84019531 14.12595703 -1.84019531 14.12595703 -1.8046875 13.04296875 C-1.86745538 10.68640281 -1.86745538 10.68640281 -4 8 C-5.32 8 -6.64 8 -8 8 Z " fill="#745447" transform="translate(222,80)"/>
<path d="M0 0 C2.77826087 1.42089849 4.74250609 2.67206288 6.23828125 5.44921875 C7.26860518 8.96301216 7.44167533 12.11279541 7.50390625 15.7734375 C7.54386719 17.0625 7.58382812 18.3515625 7.625 19.6796875 C7.06640625 23.2734375 7.06640625 23.2734375 5.0078125 26.203125 C1.29808712 28.81421989 -0.92628416 28.9435106 -5.43359375 28.8984375 C-7.3671875 28.91777344 -7.3671875 28.91777344 -9.33984375 28.9375 C-13.84120388 28.10572693 -15.30379245 26.99691797 -17.93359375 23.2734375 C-18.5625 19.71484375 -18.5625 19.71484375 -18.49609375 15.8359375 C-18.49738281 14.55847656 -18.49867188 13.28101563 -18.5 11.96484375 C-17.71253436 6.83274007 -15.63124924 3.64991493 -11.62109375 0.3984375 C-7.58170965 -1.29246747 -4.15939274 -1.56292333 0 0 Z M-6.93359375 8.2734375 C-9.14729426 10.06001507 -9.14729426 10.06001507 -9.12890625 12.4375 C-9.10570312 13.24960938 -9.0825 14.06171875 -9.05859375 14.8984375 C-9.04054687 15.71570313 -9.0225 16.53296875 -9.00390625 17.375 C-8.98070312 18.00148437 -8.9575 18.62796875 -8.93359375 19.2734375 C-6.62359375 19.2734375 -4.31359375 19.2734375 -1.93359375 19.2734375 C-1.93359375 15.9734375 -1.93359375 12.6734375 -1.93359375 9.2734375 C-4.33078807 8.59385147 -4.33078807 8.59385147 -6.93359375 8.2734375 Z " fill="#755549" transform="translate(177.93359375,119.7265625)"/>
<path d="M0 0 C4.45157251 2.31139342 6.83631908 4.50476636 9 9 C9.46875 12.59375 9.46875 12.59375 9.5 16.5 C9.5309375 17.7890625 9.561875 19.078125 9.59375 20.40625 C8.8547082 24.87939777 7.58512092 26.29853564 4 29 C-1.60297607 30.79259202 -7.6580961 30.39840583 -13 28 C-17.21817627 22.47784418 -16.60259495 16.64528324 -16 10 C-14.69661116 5.872602 -13.50880663 4.43942391 -10.25 1.625 C-6.38918695 -0.30540652 -4.26568014 -0.60938288 0 0 Z M-5 9 C-7.21370051 10.78657757 -7.21370051 10.78657757 -7.1953125 13.1640625 C-7.17210938 13.97617188 -7.14890625 14.78828125 -7.125 15.625 C-7.10695313 16.44226563 -7.08890625 17.25953125 -7.0703125 18.1015625 C-7.04710938 18.72804688 -7.02390625 19.35453125 -7 20 C-4.69 20.33 -2.38 20.66 0 21 C0.05395478 19.37536158 0.09277195 17.75021459 0.125 16.125 C0.15980469 14.76761719 0.15980469 14.76761719 0.1953125 13.3828125 C0.24324836 10.81193006 0.24324836 10.81193006 -2 9 C-2.99 9 -3.98 9 -5 9 Z " fill="#735448" transform="translate(77,79)"/>
<path d="M0 0 C4.39430264 2.07278426 6.84475612 4.29640142 8.53515625 8.9375 C9.78852143 14.49864969 10.02494421 21.00884205 7 26 C3.5709907 29.33941523 0.74945115 29.43249792 -3.9375 29.4375 C-5.14277344 29.45683594 -6.34804687 29.47617188 -7.58984375 29.49609375 C-11.57544173 28.9162874 -13.20291719 27.84859446 -16 25 C-17.86830002 19.39509995 -17.93657049 12.65299411 -15.875 7.0625 C-12.06872187 0.84557905 -7.03571723 -1.36220473 0 0 Z M-6 9 C-8.1702792 10.7587364 -8.1702792 10.7587364 -8.23046875 12.91015625 C-8.53754032 16.76685951 -8.53754032 16.76685951 -7 20 C-4.66702567 20.04092937 -2.33294775 20.04241723 0 20 C0.05399736 18.54207116 0.09279177 17.08357288 0.125 15.625 C0.15980469 14.40683594 0.15980469 14.40683594 0.1953125 13.1640625 C0.21370051 10.78657757 0.21370051 10.78657757 -2 9 C-3.32 9 -4.64 9 -6 9 Z " fill="#745448" transform="translate(121,119)"/>
<path d="M0 0 C0.33 0 0.66 0 1 0 C1 1.65 1 3.3 1 5 C2.49558803 4.9922694 2.49558803 4.9922694 4.02138996 4.98438263 C28.25690636 4.85911434 52.49242322 4.7339347 76.72794056 4.60884857 C88.44794041 4.54835639 100.16794011 4.48783516 111.88793945 4.42724609 C122.10040641 4.37445061 132.31287364 4.32170908 142.52534121 4.26903296 C147.93516128 4.24112709 153.3449812 4.21319378 158.7548008 4.18519592 C163.84279916 4.15886446 168.93079789 4.13260493 174.01879692 4.10640144 C175.88971597 4.09675326 177.76063488 4.08707842 179.63155365 4.07737541 C182.17911748 4.06416709 184.72668177 4.05105329 187.27424622 4.03796387 C188.39340438 4.03212744 188.39340438 4.03212744 189.53517181 4.02617311 C192.35682526 4.01175594 195.17830356 4 198 4 C196.44824219 5.98925781 196.44824219 5.98925781 194 8 C190.76269531 8.36230469 190.76269531 8.36230469 186.828125 8.171875 C186.10146133 8.14392853 185.37479767 8.11598206 184.62611389 8.08718872 C183.02445054 8.02449555 181.42311453 7.95299133 179.82217407 7.8739624 C175.25702002 7.65395106 170.68903544 7.5157787 166.12109375 7.3671875 C164.64391121 7.31698959 164.64391121 7.31698959 163.1368866 7.26577759 C151.86227329 6.89842875 140.59219843 6.86481761 129.3125 6.875 C128.21042206 6.87485901 127.10834412 6.87471802 125.97286987 6.87457275 C109.67955252 6.8789166 93.38998195 7.04333259 77.09823036 7.25550461 C73.91032045 7.29682224 70.72239803 7.33699957 67.5344696 7.37686157 C65.40017646 7.4037042 63.26588385 7.43059026 61.1315918 7.45751953 C60.07265307 7.47087656 59.01371435 7.48423359 57.92268658 7.49799538 C51.53974372 7.57980932 45.15705781 7.67238889 38.77437782 7.77254486 C34.75695698 7.83367535 30.73945515 7.88651972 26.72189331 7.93744659 C24.83020648 7.96333155 22.93856605 7.99289312 21.04699707 8.02629852 C18.43671774 8.07203265 15.82656367 8.10511332 13.21606445 8.13525391 C12.0703823 8.1600649 12.0703823 8.1600649 10.90155506 8.18537712 C6.80784055 8.21811969 3.68054955 7.83712253 0 6 C0 4.02 0 2.04 0 0 Z " fill="#694F45" transform="translate(47,206)"/>
<path d="M0 0 C2.53451215 1.98093562 4.54763684 4.1186989 6 7 C5.78515625 9.15625 5.78515625 9.15625 5 11 C2.9375 12.25 2.9375 12.25 1 13 C-0.32 11.68 -1.64 10.36 -3 9 C-3.556875 9.28875 -4.11375 9.5775 -4.6875 9.875 C-7.08494645 11.0413253 -9.51596939 12.0339881 -12 13 C-13.32 11.68 -14.64 10.36 -16 9 C-15.06725891 7.87105124 -14.12859878 6.74699124 -13.1875 5.625 C-12.66542969 4.99851563 -12.14335937 4.37203125 -11.60546875 3.7265625 C-7.96773237 -0.18555302 -5.18509135 -0.79094614 0 0 Z " fill="#10100E" transform="translate(311,200)"/>
<path d="M0 0 C0.78503906 -0.01675781 1.57007813 -0.03351563 2.37890625 -0.05078125 C3.39791016 0.12904297 3.39791016 0.12904297 4.4375 0.3125 C6.4375 3.3125 6.4375 3.3125 6.3125 5.8125 C5.20141659 8.98702404 4.46681 9.83668231 1.4375 11.3125 C-1.41933333 11.73296136 -3.62172842 11.59257348 -6.5625 11.3125 C-8.5625 9.8125 -8.5625 9.8125 -9.5625 8.3125 C-7.90668797 2.45347281 -6.3091353 0.03118189 0 0 Z " fill="#785A4F" transform="translate(391.5625,75.6875)"/>
<path d="M0 0 C0.33 0 0.66 0 1 0 C0.25 6.75 0.25 6.75 -2 9 C-4.25259399 9.24050903 -4.25259399 9.24050903 -7.09228516 9.22705078 C-8.15323395 9.22689972 -9.21418274 9.22674866 -10.30728149 9.22659302 C-11.45626923 9.21627045 -12.60525696 9.20594788 -13.7890625 9.1953125 C-14.96262299 9.1924826 -16.13618347 9.18965271 -17.3453064 9.18673706 C-21.10530662 9.17551355 -24.86507139 9.15040492 -28.625 9.125 C-31.1692674 9.11497301 -33.71353852 9.10584668 -36.2578125 9.09765625 C-42.5052891 9.07556714 -48.75262773 9.04206824 -55 9 C-55 8.34 -55 7.68 -55 7 C-37.84 7 -20.68 7 -3 7 C-2.67 6.01 -2.34 5.02 -2 4 C-1.34 4 -0.68 4 0 4 C0 2.68 0 1.36 0 0 Z " fill="#6A4D44" transform="translate(251,211)"/>
<path d="M0 0 C1.32 0.66 2.64 1.32 4 2 C4 2.99 4 3.98 4 5 C1.48046875 6.859375 1.48046875 6.859375 -1.8125 8.75 C-2.89144531 9.38421875 -3.97039062 10.0184375 -5.08203125 10.671875 C-8 12 -8 12 -11 11 C-9.68 9.68 -8.36 8.36 -7 7 C-7.5775 7.37125 -8.155 7.7425 -8.75 8.125 C-11 9 -11 9 -13.25 8.125 C-13.8275 7.75375 -14.405 7.3825 -15 7 C-14.67 5.68 -14.34 4.36 -14 3 C-13.01 3.99 -12.02 4.98 -11 6 C-6.89041233 4.54955729 -3.56741255 2.48889248 0 0 Z " fill="#6B5249" transform="translate(449,166)"/>
<path d="M0 0 C0.66 0.33 1.32 0.66 2 1 C1.360625 1.28875 0.72125 1.5775 0.0625 1.875 C-2.15206079 2.82823451 -2.15206079 2.82823451 -3 5 C-2.34 5 -1.68 5 -1 5 C-0.01 5.33 0.98 5.66 2 6 C0.23494565 6.86604534 -1.53728074 7.71748642 -3.3125 8.5625 C-4.29863281 9.03816406 -5.28476562 9.51382813 -6.30078125 10.00390625 C-9 11 -9 11 -12 10 C-11.67 9.67 -11.34 9.34 -11 9 C-11.66 8.01 -12.32 7.02 -13 6 C-12.34 5.01 -11.68 4.02 -11 3 C-8.99803494 2.71400499 -6.99111019 2.43309652 -4.97265625 2.30859375 C-2.68318072 2.09171361 -2.68318072 2.09171361 0 0 Z " fill="#74564B" transform="translate(734,167)"/>
<path d="M0 0 C2.0625 0.4375 2.0625 0.4375 4 1 C3.649375 2.11375 3.29875 3.2275 2.9375 4.375 C1.62760669 7.80264476 1.62760669 7.80264476 3 10 C2.071875 10.12375 2.071875 10.12375 1.125 10.25 C-1.18437567 10.81258459 -1.18437567 10.81258459 -2.25 13.0625 C-2.4975 13.701875 -2.745 14.34125 -3 15 C-3.66 15 -4.32 15 -5 15 C-5 12.36 -5 9.72 -5 7 C-4.01 6.67 -3.02 6.34 -2 6 C-1.855625 5.195625 -1.71125 4.39125 -1.5625 3.5625 C-1 1 -1 1 0 0 Z " fill="#775446" transform="translate(208,84)"/>
<path d="M0 0 C0 0.66 0 1.32 0 2 C-0.58007812 2.18175781 -1.16015625 2.36351563 -1.7578125 2.55078125 C-5.42806107 3.73180183 -8.81785658 4.90542553 -12.25 6.6875 C-15.12216569 8.05830635 -16.86497235 8.27662009 -20 8 C-20 6.35 -20 4.7 -20 3 C-18.86820313 2.86722656 -17.73640625 2.73445313 -16.5703125 2.59765625 C-15.08851821 2.4194658 -13.60674864 2.24106971 -12.125 2.0625 C-11.00544922 1.93198242 -11.00544922 1.93198242 -9.86328125 1.79882812 C-6.51424787 1.39151325 -3.23058195 0 0 0 Z " fill="#654F45" transform="translate(791,70)"/>
<path d="M0 0 C-0.66 1.32 -1.32 2.64 -2 4 C-2.66 4 -3.32 4 -4 4 C-2.35 4.33 -0.7 4.66 1 5 C1 5.66 1 6.32 1 7 C-0.45635371 7.22174933 -1.91522956 7.42698698 -3.375 7.625 C-4.18710937 7.74101563 -4.99921875 7.85703125 -5.8359375 7.9765625 C-6.55007813 7.98429687 -7.26421875 7.99203125 -8 8 C-8.66 7.34 -9.32 6.68 -10 6 C-12.57061311 5.35232207 -12.57061311 5.35232207 -15 5 C-11.05996848 1.2312742 -5.3643541 0 0 0 Z " fill="#72574E" transform="translate(561,104)"/>
<path d="M0 0 C1.125 1.75 1.125 1.75 2 4 C1.36729133 5.34977849 0.69937532 6.68352881 0 8 C0.29805007 10.19747131 0.29805007 10.19747131 1 12 C-0.98 12.99 -0.98 12.99 -3 14 C-3.33 12.35 -3.66 10.7 -4 9 C-3.34 8.67 -2.68 8.34 -2 8 C-3.32 8 -4.64 8 -6 8 C-5.6875 5.125 -5.6875 5.125 -5 2 C-2 0 -2 0 0 0 Z " fill="#6E5043" transform="translate(221,40)"/>
<path d="M0 0 C-0.969375 0.268125 -1.93875 0.53625 -2.9375 0.8125 C-3.948125 1.204375 -4.95875 1.59625 -6 2 C-6.33 2.99 -6.66 3.98 -7 5 C-9.31 5.33 -11.62 5.66 -14 6 C-14 4.35 -14 2.7 -14 1 C-12.41913952 0.63495397 -10.83516093 0.28339494 -9.25 -0.0625 C-8.36828125 -0.25972656 -7.4865625 -0.45695312 -6.578125 -0.66015625 C-4.01320972 -0.99825872 -2.42908361 -0.81158635 0 0 Z " fill="#705346" transform="translate(750,108)"/>
<path d="M0 0 C2.05078125 0.03255208 4.1015625 0.06510417 6.15234375 0.09765625 C4.83234375 2.73765625 3.51234375 5.37765625 2.15234375 8.09765625 C-0.84765625 7.09765625 -0.84765625 7.09765625 -2.84765625 5.09765625 C-3.83765625 5.59265625 -3.83765625 5.59265625 -4.84765625 6.09765625 C-2.55432956 0.13500685 -2.55432956 0.13500685 0 0 Z " fill="#70564A" transform="translate(280.84765625,143.90234375)"/>
<path d="M0 0 C2.97 0 5.94 0 9 0 C11.125 6.625 11.125 6.625 10 10 C8.68 9.67 7.36 9.34 6 9 C6.33 6.69 6.66 4.38 7 2 C6.67 2.66 6.34 3.32 6 4 C5.34 4 4.68 4 4 4 C3.67 3.34 3.34 2.68 3 2 C2.01 1.34 1.02 0.68 0 0 Z " fill="#0C0A0A" transform="translate(805,214)"/>
<path d="M0 0 C1.98 0 3.96 0 6 0 C6 0.99 6 1.98 6 3 C5.34 3 4.68 3 4 3 C4 3.66 4 4.32 4 5 C4.99 5.33 5.98 5.66 7 6 C6.67 7.98 6.34 9.96 6 12 C5.79375 11.401875 5.5875 10.80375 5.375 10.1875 C3.49073918 7.18981233 1.18867916 6.38638224 -2 5 C-1.34 3.35 -0.68 1.7 0 0 Z " fill="#5E4338" transform="translate(115,89)"/>
<path d="M0 0 C0 0.33 0 0.66 0 1 C-1.41601714 1.48108275 -2.83284437 1.95978141 -4.25 2.4375 C-5.03890625 2.70433594 -5.8278125 2.97117188 -6.640625 3.24609375 C-9 4 -9 4 -11.109375 4.47265625 C-13.3066402 4.97999044 -13.3066402 4.97999044 -16 7 C-16.66 6.34 -17.32 5.68 -18 5 C-11.47361811 0.4018673 -7.77476558 -0.12957943 0 0 Z " fill="#644E43" transform="translate(149,143)"/>
<path d="M0 0 C0.66 0 1.32 0 2 0 C2.66 2.64 3.32 5.28 4 8 C1 7 1 7 -1 6 C-1.66 7.98 -2.32 9.96 -3 12 C-3.99 12 -4.98 12 -6 12 C-4.02 8.04 -2.04 4.08 0 0 Z " fill="#7A5F55" transform="translate(301,101)"/>
<path d="M0 0 C-0.60183749 2.02045442 -1.27306096 4.02111039 -2 6 C-4.54702616 7.27351308 -5.4282945 6.80191925 -8.125 6.0625 C-8.84945312 5.86785156 -9.57390625 5.67320312 -10.3203125 5.47265625 C-10.87460937 5.31667969 -11.42890625 5.16070312 -12 5 C-12 4.67 -12 4.34 -12 4 C-9.69 4.33 -7.38 4.66 -5 5 C-4.67 3.68 -4.34 2.36 -4 1 C-4.66 0.67 -5.32 0.34 -6 0 C-3.50907189 -1.24546405 -2.58919267 -0.7767578 0 0 Z " fill="#72574A" transform="translate(662,172)"/>
<path d="M0 0 C1.32 0.33 2.64 0.66 4 1 C2.68 1.33 1.36 1.66 0 2 C0 1.34 0 0.68 0 0 Z M-4 4 C-3.34 4.33 -2.68 4.66 -2 5 C-2 5.66 -2 6.32 -2 7 C0.97 7.495 0.97 7.495 4 8 C3.67 8.66 3.34 9.32 3 10 C-0.3 9.67 -3.6 9.34 -7 9 C-7 8.01 -7 7.02 -7 6 C-6.01 5.34 -5.02 4.68 -4 4 Z " fill="#61483D" transform="translate(216,99)"/>
<path d="M0 0 C2.69082872 0.17635452 5.32851446 0.61835921 8 1 C8 1.33 8 1.66 8 2 C5.69 2 3.38 2 1 2 C1 4.97 1 7.94 1 11 C0.01 11.495 0.01 11.495 -1 12 C-1.02687279 10.18757948 -1.04633715 8.37504767 -1.0625 6.5625 C-1.07410156 5.55316406 -1.08570313 4.54382813 -1.09765625 3.50390625 C-1 1 -1 1 0 0 Z " fill="#080704" transform="translate(275,213)"/>
<path d="M0 0 C1.32 0 2.64 0 4 0 C3.67 1.98 3.34 3.96 3 6 C1.02 6.33 -0.96 6.66 -3 7 C-2.25 2.25 -2.25 2.25 0 0 Z " fill="#685349" transform="translate(451,103)"/>
<path d="M0 0 C2.31 0 4.62 0 7 0 C7 0.99 7 1.98 7 3 C5 5 5 5 2.375 5.125 C1.59125 5.08375 0.8075 5.0425 0 5 C0 3.35 0 1.7 0 0 Z " fill="#7E5952" transform="translate(771,73)"/>
<path d="M0 0 C0.33 0 0.66 0 1 0 C0.85816304 1.75032844 0.71136571 3.50025534 0.5625 5.25 C0.48128906 6.22453125 0.40007813 7.1990625 0.31640625 8.203125 C0.04925416 10.56461753 -0.35371968 12.71901065 -1 15 C-0.01 15.33 0.98 15.66 2 16 C0.35 16 -1.3 16 -3 16 C-3.23562234 10.22725258 -2.60916084 5.21832169 0 0 Z " fill="#000000" transform="translate(732,231)"/>
<path d="M0 0 C0.66 0 1.32 0 2 0 C2 1.32 2 2.64 2 4 C3.32 4.66 4.64 5.32 6 6 C3.36 6.99 0.72 7.98 -2 9 C-1.34 6.03 -0.68 3.06 0 0 Z " fill="#6E534B" transform="translate(669,169)"/>
<path d="M0 0 C2 2 2 2 2.1953125 4.1640625 C2.17210937 4.97617188 2.14890625 5.78828125 2.125 6.625 C2.10695313 7.44226563 2.08890625 8.25953125 2.0703125 9.1015625 C2.03550781 10.04128906 2.03550781 10.04128906 2 11 C1.01 10.67 0.02 10.34 -1 10 C-2.25 3.375 -2.25 3.375 0 0 Z " fill="#7A4A42" transform="translate(394,160)"/>
<path d="M0 0 C6.0546875 -0.1953125 6.0546875 -0.1953125 8 0 C8.66 0.66 9.32 1.32 10 2 C9.01 3.485 9.01 3.485 8 5 C6.68 5 5.36 5 4 5 C3.67 4.01 3.34 3.02 3 2 C2.01 1.34 1.02 0.68 0 0 Z " fill="#776159" transform="translate(619,69)"/>
<path d="M0 0 C0.33 0 0.66 0 1 0 C0.25 6.75 0.25 6.75 -2 9 C-4.3828125 9.1953125 -4.3828125 9.1953125 -7.125 9.125 C-8.49011719 9.09792969 -8.49011719 9.09792969 -9.8828125 9.0703125 C-10.58148438 9.04710937 -11.28015625 9.02390625 -12 9 C-12 8.67 -12 8.34 -12 8 C-7.545 7.505 -7.545 7.505 -3 7 C-2.67 6.01 -2.34 5.02 -2 4 C-1.34 4 -0.68 4 0 4 C0 2.68 0 1.36 0 0 Z " fill="#533F36" transform="translate(251,211)"/>
<path d="M0 0 C1.65 0.33 3.3 0.66 5 1 C4.67 2.32 4.34 3.64 4 5 C0.04 5 -3.92 5 -8 5 C-8 4.67 -8 4.34 -8 4 C-3.545 3.505 -3.545 3.505 1 3 C0.67 2.01 0.34 1.02 0 0 Z " fill="#6F6059" transform="translate(275,173)"/>
<path d="M0 0 C2.64 0 5.28 0 8 0 C8 0.33 8 0.66 8 1 C6.35 1.33 4.7 1.66 3 2 C4.32 2.66 5.64 3.32 7 4 C4.36 4.66 1.72 5.32 -1 6 C-0.67 4.02 -0.34 2.04 0 0 Z " fill="#806660" transform="translate(610,105)"/>
<path d="M0 0 C0.66 0.66 1.32 1.32 2 2 C2.99 2 3.98 2 5 2 C5 2.66 5 3.32 5 4 C4.34 4 3.68 4 3 4 C3.33 6.31 3.66 8.62 4 11 C2 9.4375 2 9.4375 0 7 C-0.25 3.25 -0.25 3.25 0 0 Z " fill="#6D4F45" transform="translate(160,136)"/>
<path d="M0 0 C1.43859375 0.11408203 1.43859375 0.11408203 2.90625 0.23046875 C5.5 0.8125 5.5 0.8125 8.5 3.8125 C2.89 3.1525 -2.72 2.4925 -8.5 1.8125 C-5.03148 -0.49984667 -4.02682952 -0.37345596 0 0 Z " fill="#684E43" transform="translate(320.5,122.1875)"/>
<path d="M0 0 C0.66 0 1.32 0 2 0 C1.34 5.61 0.68 11.22 0 17 C-0.33 17 -0.66 17 -1 17 C-1.02684679 14.35409986 -1.04676357 11.70846904 -1.0625 9.0625 C-1.07087891 8.30775391 -1.07925781 7.55300781 -1.08789062 6.77539062 C-1.09652441 4.85005687 -1.05224333 2.92464419 -1 1 C-0.67 0.67 -0.34 0.34 0 0 Z " fill="#000000" transform="translate(763,240)"/>
<path d="M0 0 C0.99 0.33 1.98 0.66 3 1 C2.34 1 1.68 1 1 1 C1.09539063 1.61488281 1.19078125 2.22976562 1.2890625 2.86328125 C1.39992188 3.67152344 1.51078125 4.47976562 1.625 5.3125 C1.74101563 6.11300781 1.85703125 6.91351563 1.9765625 7.73828125 C2 10 2 10 0 13 C-1.98384711 9.03230578 -1.32630565 4.14470514 0 0 Z " fill="#000000" transform="translate(786,216)"/>
<path d="M0 0 C0.99 0.33 1.98 0.66 3 1 C1.4375 3.0625 1.4375 3.0625 -1 5 C-4.6875 4.875 -4.6875 4.875 -8 4 C-8.33 3.34 -8.66 2.68 -9 2 C-4.545 1.505 -4.545 1.505 0 1 C0 0.67 0 0.34 0 0 Z " fill="#664B3F" transform="translate(242,209)"/>
<path d="M0 0 C1.98 0 3.96 0 6 0 C6 1.32 6 2.64 6 4 C4.02 4.33 2.04 4.66 0 5 C0 3.35 0 1.7 0 0 Z " fill="#68524A" transform="translate(368,172)"/>
<path d="M0 0 C0 0.33 0 0.66 0 1 C-1.98 1.33 -3.96 1.66 -6 2 C-6.33 2.99 -6.66 3.98 -7 5 C-8.98 4.34 -10.96 3.68 -13 3 C-12.67 2.34 -12.34 1.68 -12 1 C-8.01624339 -0.17169312 -4.12560776 -0.08089427 0 0 Z " fill="#513D34" transform="translate(174,89)"/>
<path d="M0 0 C7.42857143 -0.14285714 7.42857143 -0.14285714 11 1 C10.67 2.32 10.34 3.64 10 5 C9.01 4.01 8.02 3.02 7 2 C6.67 2.66 6.34 3.32 6 4 C4.02 3.01 2.04 2.02 0 1 C0 0.67 0 0.34 0 0 Z " fill="#0C0A08" transform="translate(620,216)"/>
<path d="M0 0 C2.0625 0.4375 2.0625 0.4375 4 1 C4.93065133 3.60582371 5.14917407 4.64198224 4.0625 7.25 C3.711875 7.8275 3.36125 8.405 3 9 C1.5393715 6.35261084 1 5.10551666 1 2 C0.34 1.67 -0.32 1.34 -1 1 C-0.67 0.67 -0.34 0.34 0 0 Z " fill="#6E544D" transform="translate(302,99)"/>
<path d="M0 0 C0.99 0.33 1.98 0.66 3 1 C1.68 1.33 0.36 1.66 -1 2 C-0.814375 2.94875 -0.62875 3.8975 -0.4375 4.875 C0 8 0 8 -1 10 C-1.66 10 -2.32 10 -3 10 C-3.29296875 3.9453125 -3.29296875 3.9453125 -3 2 C-2.01 1.34 -1.02 0.68 0 0 Z " fill="#775C51" transform="translate(206,89)"/>
<path d="M0 0 C0 1.98 0 3.96 0 6 C-0.33 5.01 -0.66 4.02 -1 3 C-1.99 3.495 -1.99 3.495 -3 4 C-2.67 4.99 -2.34 5.98 -2 7 C-2.99 6.67 -3.98 6.34 -5 6 C-5 4.35 -5 2.7 -5 1 C-3 0 -3 0 0 0 Z " fill="#6B524B" transform="translate(439,79)"/>
<path d="M0 0 C-1.76505435 0.86604534 -3.53728074 1.71748642 -5.3125 2.5625 C-6.79169922 3.27599609 -6.79169922 3.27599609 -8.30078125 4.00390625 C-11 5 -11 5 -14 4 C-12.02 3.34 -10.04 2.68 -8 2 C-8 1.34 -8 0.68 -8 0 C-4.71303767 -0.79953138 -3.28976808 -1.09658936 0 0 Z " fill="#665248" transform="translate(736,173)"/>
<path d="M0 0 C-2.3125 1.5625 -2.3125 1.5625 -5 3 C-5.99 2.67 -6.98 2.34 -8 2 C-9.66362417 1.65179959 -11.32995171 1.31595508 -13 1 C-13 0.67 -13 0.34 -13 0 C-11.58456585 -0.19658808 -10.16755969 -0.38187546 -8.75 -0.5625 C-7.96109375 -0.66691406 -7.1721875 -0.77132812 -6.359375 -0.87890625 C-3.99467126 -1.00027349 -2.2488963 -0.69633257 0 0 Z " fill="#0A0A08" transform="translate(371,217)"/>
<path d="M0 0 C1.65 0 3.3 0 5 0 C5.33 1.32 5.66 2.64 6 4 C5.01 4.66 4.02 5.32 3 6 C2.67 5.01 2.34 4.02 2 3 C1.34 2.67 0.68 2.34 0 2 C0 1.34 0 0.68 0 0 Z " fill="#7B6862" transform="translate(619,105)"/>
<path d="M0 0 C0 0.66 0 1.32 0 2 C-5.75 5 -5.75 5 -8 5 C-8 4.01 -8 3.02 -8 2 C-4.77208445 -0.1519437 -3.71599191 -0.20086443 0 0 Z " fill="#7E5D55" transform="translate(453,168)"/>
<path d="M0 0 C1.32 0.66 2.64 1.32 4 2 C3.6875 3.9375 3.6875 3.9375 3 6 C2.01 6.33 1.02 6.66 0 7 C-1.125 2.25 -1.125 2.25 0 0 Z " fill="#765B4E" transform="translate(122,120)"/>
<path d="M0 0 C0.66 0.33 1.32 0.66 2 1 C0.48890239 3.3422013 -0.46097908 4.77132446 -3.0625 5.875 C-3.701875 5.91625 -4.34125 5.9575 -5 6 C-5.66 5.34 -6.32 4.68 -7 4 C-1.7265625 0.77734375 -1.7265625 0.77734375 0 0 Z " fill="#6E554B" transform="translate(394,104)"/>
<path d="M0 0 C0.66 0 1.32 0 2 0 C2 0.66 2 1.32 2 2 C2.66 2 3.32 2 4 2 C3.67 3.65 3.34 5.3 3 7 C0.2160817 5.60804085 0.02101003 3.84424221 -1 1 C-0.67 0.67 -0.34 0.34 0 0 Z " fill="#080807" transform="translate(620,244)"/>
<path d="M0 0 C2 2 2 2 2.125 5.625 C2.08375 6.73875 2.0425 7.8525 2 9 C1.01 9.33 0.02 9.66 -1 10 C-0.67 6.7 -0.34 3.4 0 0 Z " fill="#010000" transform="translate(622,230)"/>
<path d="M0 0 C0.66 0.66 1.32 1.32 2 2 C0.68 3.32 -0.64 4.64 -2 6 C-2 3 -2 3 0 0 Z M-4 6 C-3.67 6.66 -3.34 7.32 -3 8 C-3.99 8.99 -4.98 9.98 -6 11 C-5.34 9.35 -4.68 7.7 -4 6 Z " fill="#77635A" transform="translate(273,153)"/>
<path d="M0 0 C0 0.66 0 1.32 0 2 C-4.455 2.495 -4.455 2.495 -9 3 C-9.33 2.34 -9.66 1.68 -10 1 C-6.1496895 -1.56687367 -4.41430237 -0.83288724 0 0 Z " fill="#684D44" transform="translate(562,109)"/>
<path d="M0 0 C4.455 0.99 4.455 0.99 9 2 C9 2.99 9 3.98 9 5 C6 4 3 3 0 2 C0 1.34 0 0.68 0 0 Z " fill="#70564B" transform="translate(668,105)"/>
<path d="M0 0 C0.66 0 1.32 0 2 0 C2 0.99 2 1.98 2 3 C2.66 3 3.32 3 4 3 C4 4.32 4 5.64 4 7 C4.99 7.33 5.98 7.66 7 8 C5.35 7.67 3.7 7.34 2 7 C1.67 6.01 1.34 5.02 1 4 C0.34 3.67 -0.32 3.34 -1 3 C-0.67 2.01 -0.34 1.02 0 0 Z " fill="#664D44" transform="translate(432,98)"/>
<path d="M0 0 C0.66 0.33 1.32 0.66 2 1 C2.625 3.0625 2.625 3.0625 3 5 C1.02 5.66 -0.96 6.32 -3 7 C-1.125 1.125 -1.125 1.125 0 0 Z " fill="#695248" transform="translate(385,77)"/>
<path d="M0 0 C0.66 0.33 1.32 0.66 2 1 C0.02 5.455 0.02 5.455 -2 10 C-2.33 10 -2.66 10 -3 10 C-3.36923077 3.47692308 -3.36923077 3.47692308 -1.5 1.0625 C-1.005 0.711875 -0.51 0.36125 0 0 Z " fill="#6A5047" transform="translate(184,41)"/>
<path d="M0 0 C1.62463842 -0.05395478 3.24978541 -0.09277195 4.875 -0.125 C5.77992187 -0.14820313 6.68484375 -0.17140625 7.6171875 -0.1953125 C10 0 10 0 12 2 C8.90521121 3.03159626 7.47368607 2.97482862 4.3125 2.5625 C3.10013672 2.40974609 3.10013672 2.40974609 1.86328125 2.25390625 C1.24839844 2.17011719 0.63351563 2.08632813 0 2 C0 1.34 0 0.68 0 0 Z " fill="#735C54" transform="translate(45,40)"/>
<path d="M0 0 C1.32 0.33 2.64 0.66 4 1 C4 2.32 4 3.64 4 5 C2.68 5 1.36 5 0 5 C0 3.35 0 1.7 0 0 Z " fill="#6D5C53" transform="translate(798,169)"/>
<path d="M0 0 C0 1.32 0 2.64 0 4 C0.33 4.66 0.66 5.32 1 6 C-0.65 6 -2.3 6 -4 6 C-4 4.35 -4 2.7 -4 1 C-2 0 -2 0 0 0 Z " fill="#664B46" transform="translate(740,108)"/>
<path d="M0 0 C3 0.25 3 0.25 5 2.25 C4.67 2.58 4.34 2.91 4 3.25 C2.47480724 3.16062197 0.95318071 3.00462854 -0.5625 2.8125 C-1.80193359 2.65974609 -1.80193359 2.65974609 -3.06640625 2.50390625 C-3.70449219 2.42011719 -4.34257813 2.33632812 -5 2.25 C-3 0.25 -3 0.25 0 0 Z " fill="#523E35" transform="translate(73,105.75)"/>
<path d="M0 0 C2.31 0 4.62 0 7 0 C7.33 0.99 7.66 1.98 8 3 C7.01 3.33 6.02 3.66 5 4 C4.01 3.34 3.02 2.68 2 2 C1.67 2.66 1.34 3.32 1 4 C0.67 2.68 0.34 1.36 0 0 Z " fill="#6B4B3E" transform="translate(219,95)"/>
<path d="M0 0 C5.78461538 3.44615385 5.78461538 3.44615385 6.875 6.25 C6.936875 7.11625 6.936875 7.11625 7 8 C6.236875 7.360625 5.47375 6.72125 4.6875 6.0625 C2.11753287 3.85767219 2.11753287 3.85767219 -1 3 C-0.67 2.01 -0.34 1.02 0 0 Z " fill="#0B0B07" transform="translate(507,215)"/>
<path d="M0 0 C0.33 0 0.66 0 1 0 C1.66 2.31 2.32 4.62 3 7 C1.66666667 8.33333333 0.33333333 9.66666667 -1 11 C-0.67 7.37 -0.34 3.74 0 0 Z " fill="#0B0908" transform="translate(290,231)"/>
<path d="M0 0 C4 1 4 1 4 1 Z " fill="#000000" transform="translate(622,256)"/>
<path d="M0 0 C0.99 0.33 1.98 0.66 3 1 C2.01 1.33 1.02 1.66 0 2 C0 1.34 0 0.68 0 0 Z " fill="#000000" transform="translate(266,247)"/>
<path d="M0 0 C0.99 0.495 0.99 0.495 2 1 C1.01 1.495 1.01 1.495 0 2 C0 1.34 0 0.68 0 0 Z " fill="#000000" transform="translate(532,227)"/>
<path d="M0 0 C2 1 2 1 2 1 Z " fill="#000000" transform="translate(367,227)"/>
<path d="" fill="#000000" transform="translate(0,0)"/>
<path d="" fill="#000000" transform="translate(0,0)"/>
<path d="" fill="#000000" transform="translate(0,0)"/>
<path d="" fill="#000000" transform="translate(0,0)"/>
<path d="" fill="#000000" transform="translate(0,0)"/>
<path d="" fill="#000000" transform="translate(0,0)"/>
</svg>
