<?xml version="1.0" encoding="UTF-8"?>
<svg version="1.1" xmlns="http://www.w3.org/2000/svg" width="856" height="291">
<path d="M0 0 C3.1875 1.75 3.1875 1.75 5 4 C5 5.32 5 6.64 5 8 C5.99 8 6.98 8 8 8 C8.268125 7.05125 8.53625 6.1025 8.8125 5.125 C10 2 10 2 13 0 C18.68277357 -0.76903631 23.45552774 -1.12049948 28.1875 2.3125 C30 5 30 5 31 8 C31.66 8 32.32 8 33 8 C33.0825 7.236875 33.165 6.47375 33.25 5.6875 C34.18294113 2.34446093 35.03725696 1.72992379 38 0 C40.875 -0.43359375 40.875 -0.43359375 44 -0.4375 C45.546875 -0.46650391 45.546875 -0.46650391 47.125 -0.49609375 C50 0 50 0 52.34375 1.37890625 C54.96158897 5.52175991 54.57885728 9.57784874 54.5 14.375 C54.52320312 15.77492188 54.52320312 15.77492188 54.546875 17.203125 C54.51429593 22.95333076 53.93636557 26.50740886 50 31 C49.01 31.66 48.02 32.32 47 33 C46.58390728 35.32300384 46.58390728 35.32300384 46.70703125 38.0078125 C46.71669922 38.99394531 46.72636719 39.98007813 46.73632812 40.99609375 C46.76146484 42.02863281 46.78660156 43.06117187 46.8125 44.125 C46.82603516 45.16527344 46.83957031 46.20554688 46.85351562 47.27734375 C46.88894772 49.85207627 46.93834779 52.4257833 47 55 C48.98 55.33 50.96 55.66 53 56 C53.061875 55.21625 53.12375 54.4325 53.1875 53.625 C54 51 54 51 56.1015625 49.8203125 C59.65846408 48.81364224 62.50812852 48.95534011 66.1875 49.25 C67.41855469 49.33765625 68.64960937 49.4253125 69.91796875 49.515625 C73 50 73 50 75 52 C75 53.32 75 54.64 75 56 C76.32 56 77.64 56 79 56 C79.144375 55.195625 79.28875 54.39125 79.4375 53.5625 C80 51 80 51 81 50 C83.98866642 49.89988704 86.94910453 49.86126025 89.9375 49.875 C91.19336914 49.86919922 91.19336914 49.86919922 92.47460938 49.86328125 C93.67633789 49.86521484 93.67633789 49.86521484 94.90234375 49.8671875 C95.63960693 49.86831543 96.37687012 49.86944336 97.13647461 49.87060547 C99 50 99 50 101 51 C101.2165625 51.99 101.2165625 51.99 101.4375 53 C101.623125 53.66 101.80875 54.32 102 55 C103.485 55.495 103.485 55.495 105 56 C105.99 53.03 105.99 53.03 107 50 C110.08283443 49.85445654 113.16478439 49.76586179 116.25 49.6875 C117.12269531 49.64560547 117.99539062 49.60371094 118.89453125 49.56054688 C121.35794456 49.51353517 123.5803413 49.52813273 126 50 C128.359375 52.45703125 128.359375 52.45703125 130 55 C131.32 55.33 132.64 55.66 134 56 C134 48.08 134 40.16 134 32 C132.68 31.67 131.36 31.34 130 31 C125.98640228 25.64853637 125.61507094 20.80362802 125.5625 14.3125 C125.55250977 13.57580078 125.54251953 12.83910156 125.53222656 12.08007812 C125.60382272 7.56747478 126.20264431 4.57705874 129 1 C131.69106907 -0.34553453 133.87165422 -0.20594114 136.875 -0.25 C137.92429688 -0.27578125 138.97359375 -0.3015625 140.0546875 -0.328125 C143.33768591 0.03762018 144.69474866 0.66717389 147 3 C147.25 5.6875 147.25 5.6875 147 8 C148.32 8 149.64 8 151 8 C151.1546875 6.8553125 151.1546875 6.8553125 151.3125 5.6875 C152.08114681 2.68278974 152.53871706 1.81966645 155 0 C157.77734375 -0.36328125 157.77734375 -0.36328125 160.9375 -0.3125 C162.49791016 -0.30669922 162.49791016 -0.30669922 164.08984375 -0.30078125 C166.95304097 -0.00485348 168.65626404 0.34785826 171 2 C171.75 5.125 171.75 5.125 172 8 C172.99 8 173.98 8 175 8 C175.268125 7.05125 175.53625 6.1025 175.8125 5.125 C177 2 177 2 180 0 C182.77734375 -0.30078125 182.77734375 -0.30078125 185.9375 -0.3125 C186.97777344 -0.32925781 188.01804688 -0.34601562 189.08984375 -0.36328125 C192.3886508 0.04851614 193.73719263 0.57858464 196 3 C197.9968558 10.05555716 198.3863686 21.52032562 194.88671875 28.08984375 C193.5625 29.75 193.5625 29.75 191 32 C190.34 32 189.68 32 189 32 C189 73.25 189 114.5 189 157 C191.31 157.66 193.62 158.32 196 159 C197.57314184 162.14628368 197.26696326 165.48581488 197.3125 168.9375 C197.34150391 169.66646484 197.37050781 170.39542969 197.40039062 171.14648438 C197.46389273 176.47577613 197.46389273 176.47577613 195.48818207 178.70843601 C191.96507538 180.53720803 188.64004758 180.41742657 184.76330566 180.38768005 C183.50672016 180.39575836 183.50672016 180.39575836 182.22474909 180.40399987 C179.41335584 180.41832506 176.60243041 180.41116454 173.79101562 180.40405273 C171.77723308 180.40975387 169.76345376 180.41671714 167.74967957 180.42485046 C162.27663547 180.44282413 156.80375134 180.44160571 151.33068657 180.43590808 C146.76530309 180.43282267 142.19995062 180.43890137 137.63457155 180.44494683 C126.86719475 180.45900393 116.09989727 180.45742056 105.33251953 180.44604492 C94.2148 180.4345589 83.09732157 180.4486449 71.97963381 180.4754414 C62.44154803 180.49757208 52.90353808 180.50424182 43.36542845 180.49836498 C37.66550137 180.49498834 31.96572891 180.49745753 26.26582336 180.51461601 C20.90760906 180.5300414 15.54975304 180.52617863 10.19155312 180.50731087 C8.22268558 180.50361293 6.25379174 180.50676833 4.28494835 180.51719666 C1.60177943 180.53032588 -1.08018921 180.51893137 -3.76330566 180.50120544 C-4.54657022 180.51081045 -5.32983478 180.52041546 -6.13683462 180.53031152 C-9.63096468 180.48265628 -11.63270171 180.26953508 -14.4859848 178.17570591 C-16.64620762 175.07137144 -16.46221652 172.7423817 -16.375 169 C-16.36210937 167.783125 -16.34921875 166.56625 -16.3359375 165.3125 C-16.02898877 162.28584276 -15.58986788 160.54378861 -14 158 C-12.02 158 -10.04 158 -8 158 C-8.01380276 141.77092491 -8.05601368 125.54221153 -8.13209057 109.31332016 C-8.16675101 101.77802032 -8.19209744 94.24290361 -8.19555664 86.70751953 C-8.19859511 80.14002014 -8.21906924 73.5728468 -8.26052457 67.00547338 C-8.2818676 63.52765325 -8.29444891 60.0502968 -8.28615379 56.57241058 C-8.27722246 52.69085867 -8.30721626 48.81014138 -8.34057617 44.92871094 C-8.33195053 43.77424973 -8.32332489 42.61978851 -8.31443787 41.43034363 C-8.22864833 35.295959 -8.22864833 35.295959 -11.46063232 30.37615967 C-12.71761932 29.69496063 -12.71761932 29.69496063 -14 29 C-16.93847073 24.56196884 -16.40608136 19.64567537 -16.4375 14.5 C-16.47037109 13.54996094 -16.50324219 12.59992187 -16.53710938 11.62109375 C-16.59057108 4.70995307 -16.59057108 4.70995307 -13.81640625 1.375 C-9.19741816 -0.88003995 -5.0210274 -0.75277772 0 0 Z M-7 9 C-7.05384521 11.29141286 -7.09272087 13.58318188 -7.125 15.875 C-7.14820313 17.15117188 -7.17140625 18.42734375 -7.1953125 19.7421875 C-7.35641524 23.08593338 -7.35641524 23.08593338 -5 25 C-2.87270274 25.30563268 -2.87270274 25.30563268 -0.3984375 25.25878906 C0.55595215 25.26509338 1.5103418 25.27139771 2.49365234 25.27789307 C3.52699707 25.2738446 4.5603418 25.26979614 5.625 25.265625 C7.21175537 25.26849518 7.21175537 25.26849518 8.83056641 25.27142334 C11.06998939 25.27278602 13.30942026 25.26908382 15.54882812 25.26074219 C18.98585677 25.25004402 22.4223627 25.26063488 25.859375 25.2734375 C28.03125116 25.27211592 30.20312699 25.26955356 32.375 25.265625 C33.40834473 25.26967346 34.44168945 25.27372192 35.50634766 25.27789307 C36.4607373 25.27158875 37.41512695 25.26528442 38.3984375 25.25878906 C39.66179932 25.25640228 39.66179932 25.25640228 40.95068359 25.25396729 C43.22446396 25.18538517 43.22446396 25.18538517 45 23 C45.24377883 19.64255888 45.24377883 19.64255888 45.125 15.875 C45.10695312 14.59367187 45.08890625 13.31234375 45.0703125 11.9921875 C45.04710937 11.00476563 45.02390625 10.01734375 45 9 C44.01 9 43.02 9 42 9 C41.566875 10.4540625 41.566875 10.4540625 41.125 11.9375 C40 15 40 15 38 16 C35.66906388 16.12283119 33.33413961 16.17554232 31 16.1875 C29.1128125 16.20876953 29.1128125 16.20876953 27.1875 16.23046875 C24 16 24 16 22 14 C21.375 11.375 21.375 11.375 21 9 C19.68 9 18.36 9 17 9 C16.690625 9.969375 16.38125 10.93875 16.0625 11.9375 C15 15 15 15 14 16 C11.71187186 16.15215174 9.41800872 16.22186492 7.125 16.25 C5.24167969 16.28867187 5.24167969 16.28867187 3.3203125 16.328125 C0 16 0 16 -1.90234375 14.62109375 C-3.15544022 12.77043526 -3.62203575 11.19219266 -4 9 C-4.99 9 -5.98 9 -7 9 Z M135 9 C134.91924335 11.29109597 134.86092269 13.58299267 134.8125 15.875 C134.77769531 17.15117188 134.74289063 18.42734375 134.70703125 19.7421875 C134.80371094 20.81726563 134.90039062 21.89234375 135 23 C138.19891713 25.13261142 139.03871559 25.25449383 142.71508789 25.2746582 C143.66940201 25.28419022 144.62371613 25.29372223 145.60694885 25.30354309 C146.63513229 25.30263168 147.66331573 25.30172028 148.72265625 25.30078125 C149.77907822 25.30506638 150.83550018 25.3093515 151.92393494 25.31376648 C154.15737185 25.31951072 156.39082748 25.32000936 158.62426758 25.31567383 C162.05256783 25.31250917 165.48000933 25.33598877 168.90820312 25.36132812 C171.07551974 25.36360052 173.24283869 25.36430489 175.41015625 25.36328125 C176.44036392 25.372491 177.47057159 25.38170074 178.53199768 25.39118958 C179.95874062 25.38184639 179.95874062 25.38184639 181.41430664 25.37231445 C182.25353165 25.37294388 183.09275665 25.3735733 183.95741272 25.3742218 C184.63146652 25.25072861 185.30552032 25.12723541 186 25 C188.42130331 21.36804504 188.21022785 19.61650652 188.125 15.3125 C188.10695312 14.13300781 188.08890625 12.95351563 188.0703125 11.73828125 C188.04710937 10.83464844 188.02390625 9.93101563 188 9 C186.68 9 185.36 9 184 9 C183.01 11.31 182.02 13.62 181 16 C178.72975032 16.08097324 176.45867925 16.13917704 174.1875 16.1875 C172.29064453 16.23970703 172.29064453 16.23970703 170.35546875 16.29296875 C167 16 167 16 165.09375 14.625 C163.84679439 12.77238024 163.37770064 11.1906637 163 9 C162.01 9 161.02 9 160 9 C159.525625 9.969375 159.05125 10.93875 158.5625 11.9375 C157 15 157 15 156 16 C153.30345146 16.07319621 150.63308542 16.09242537 147.9375 16.0625 C147.17888672 16.05798828 146.42027344 16.05347656 145.63867188 16.04882812 C143.75908129 16.0370068 141.87953101 16.01907078 140 16 C139.34 13.69 138.68 11.38 138 9 C137.01 9 136.02 9 135 9 Z M1 34 C1 74.92 1 115.84 1 158 C12.88 158 24.76 158 37 158 C37 117.08 37 76.16 37 34 C18.88660337 32.62985543 18.88660337 32.62985543 1 34 Z M143 34 C142.97666186 49.87228054 142.95901631 65.74455647 142.94818783 81.6168499 C142.94302682 88.98627165 142.93598783 96.35568274 142.92456055 103.72509766 C142.91460776 110.146666 142.90814515 116.56822664 142.90591151 122.98980248 C142.90460541 126.39142379 142.90152594 129.79302304 142.89426994 133.1946373 C142.88705518 136.98768189 142.88600925 140.78068016 142.88647461 144.57373047 C142.88287933 145.70733002 142.87928406 146.84092957 142.87557983 148.00888062 C142.8769545 149.03815674 142.87832916 150.06743286 142.87974548 151.12789917 C142.87882369 152.02572554 142.8779019 152.9235519 142.87695217 153.84858513 C142.86066108 156.05083183 142.86066108 156.05083183 144 158 C155.55 158 167.1 158 179 158 C179.83882216 150.80383978 179.83882216 150.80383978 180.12698364 143.6859436 C180.12980347 142.73552185 180.13262329 141.7851001 180.13552856 140.80587769 C180.13350433 139.79566559 180.1314801 138.78545349 180.12939453 137.74462891 C180.13114685 136.65573364 180.13289917 135.56683838 180.13470459 134.44494629 C180.13907999 130.87213514 180.13620159 127.29937409 180.1328125 123.7265625 C180.13348648 121.23554474 180.1344573 118.74452705 180.13571167 116.25350952 C180.13718254 111.04709239 180.13505261 105.84069247 180.13037109 100.63427734 C180.12579514 95.28400456 180.12554435 89.93376808 180.13037109 84.58349609 C180.13615607 78.11518113 180.1370828 71.64688646 180.13381577 65.17856979 C180.13314778 62.71372854 180.13397046 60.24888642 180.13629532 57.78404617 C180.13882587 54.34900853 180.1349763 50.91403663 180.12939453 47.47900391 C180.13141876 46.45664642 180.13344299 45.43428894 180.13552856 44.38095093 C180.13270874 43.44744812 180.12988892 42.51394531 180.12698364 41.55215454 C180.12660662 40.74068277 180.12622959 39.92921101 180.12584114 39.09314919 C180.07888867 36.80545717 180.07888867 36.80545717 179 34 C175.76899333 32.92299778 173.40876919 32.87074435 170.01171875 32.8671875 C168.83029297 32.86589844 167.64886719 32.86460938 166.43164062 32.86328125 C165.19607422 32.86714844 163.96050781 32.87101562 162.6875 32.875 C161.46353516 32.87113281 160.23957031 32.86726563 158.97851562 32.86328125 C157.79322266 32.86457031 156.60792969 32.86585937 155.38671875 32.8671875 C154.30608154 32.86831543 153.22544434 32.86944336 152.11206055 32.87060547 C148.99660174 33.00014129 146.06764644 33.46212201 143 34 Z M62 59 C61.67 60.65 61.34 62.3 61 64 C56.05 64.33 51.1 64.66 46 65 C46 95.69 46 126.38 46 158 C54.25 158 62.5 158 71 158 C71.03738281 155.36128906 71.07476562 152.72257812 71.11328125 150.00390625 C71.15961444 147.422202 71.21080497 144.840636 71.26245117 142.2590332 C71.29551638 140.47754457 71.32360442 138.69595582 71.34643555 136.91430664 C71.38032307 134.33957614 71.43265143 131.7657482 71.48828125 129.19140625 C71.49786613 128.01427818 71.49786613 128.01427818 71.50764465 126.81336975 C71.66269839 120.8592039 72.37331133 114.11777936 76.34516907 109.40333557 C81.38776869 104.98369886 86.08720364 103.51232543 92.65625 103.6875 C98.24233426 104.43231124 101.95816881 106.6910326 105.4375 111.0625 C107.29493397 114.55447587 108.12130155 117.20328643 108.20532227 121.10424805 C108.2352401 122.3351844 108.2352401 122.3351844 108.26576233 123.59098816 C108.28247482 124.47232925 108.29918732 125.35367035 108.31640625 126.26171875 C108.33718735 127.16751175 108.35796844 128.07330475 108.37937927 129.00654602 C108.44476558 131.90012016 108.50370904 134.79378507 108.5625 137.6875 C108.6056956 139.64909793 108.64931023 141.61068668 108.69335938 143.57226562 C108.80122443 148.38141874 108.90037907 153.19064073 109 158 C117.25 158 125.5 158 134 158 C134 127.31 134 96.62 134 65 C129.71 64.67 125.42 64.34 121 64 C118.6875 60.9375 118.6875 60.9375 118 58 C116.04105639 58.11306697 116.04105639 58.11306697 114 59 C113.34 60.65 112.68 62.3 112 64 C105.73 64 99.46 64 93 64 C92.505 61.03 92.505 61.03 92 58 C90.04105639 58.11306697 90.04105639 58.11306697 88 59 C86.84668432 61.50804892 86.84668432 61.50804892 86 64 C83.20826945 64.02690104 80.41679652 64.04679053 77.625 64.0625 C76.43390625 64.07506836 76.43390625 64.07506836 75.21875 64.08789062 C69.2265625 64.11328125 69.2265625 64.11328125 67 63 C66.375 60.4375 66.375 60.4375 66 58 C64.63106761 57.94729537 64.63106761 57.94729537 62 59 Z M81 117 C79.7307747 120.80767591 79.85703304 124.38500744 79.8671875 128.3515625 C79.86623077 129.16619965 79.86527405 129.98083679 79.86428833 130.82015991 C79.86360834 132.53993812 79.86545002 134.25971892 79.86962891 135.97949219 C79.87499351 138.62180283 79.86967075 141.26394455 79.86328125 143.90625 C79.86394179 145.57552121 79.86522246 147.24479232 79.8671875 148.9140625 C79.86516327 149.70881989 79.86313904 150.50357727 79.86105347 151.32241821 C79.53250044 154.9600854 79.53250044 154.9600854 81 158 C82.41570123 158.08651611 83.835595 158.10704904 85.25390625 158.09765625 C86.10791016 158.09443359 86.96191406 158.09121094 87.84179688 158.08789062 C88.73962891 158.07951172 89.63746094 158.07113281 90.5625 158.0625 C91.46419922 158.05798828 92.36589844 158.05347656 93.29492188 158.04882812 C95.53001314 158.03700225 97.76497437 158.0205222 100 158 C100.09903517 152.39499036 100.17154712 146.79049238 100.21972656 141.18481445 C100.23981546 139.2787997 100.26709194 137.37284638 100.30175781 135.46704102 C100.35039642 132.72396674 100.37299579 129.98170875 100.390625 127.23828125 C100.41127014 126.38913651 100.43191528 125.53999176 100.45318604 124.66511536 C100.45473044 120.57333887 100.33259516 118.52792001 98.10058594 114.98510742 C94.87242 111.93440806 92.49539892 111.6040191 88.0390625 111.64453125 C84.58655959 112.24640436 83.05809848 114.31823531 81 117 Z M-7 167 C-7 168.32 -7 169.64 -7 171 C57.35 171 121.7 171 188 171 C188 169.68 188 168.36 188 167 C123.65 167 59.3 167 -7 167 Z " fill="#755448" transform="translate(31,40)"/>
<path d="M0 0 C0.69222656 1.76537109 0.69222656 1.76537109 1.3984375 3.56640625 C16.08249485 40.78976393 32.78624253 76.63563592 55 110 C58.465 109.505 58.465 109.505 62 109 C62.33 110.65 62.66 112.3 63 114 C60.31275296 114.48062124 57.62521967 114.95953496 54.9375 115.4375 C54.18533203 115.57220703 53.43316406 115.70691406 52.65820312 115.84570312 C48.11474542 116.6521177 43.57195693 117.37461944 39 118 C38.56844604 116.95730957 38.56844604 116.95730957 38.12817383 115.89355469 C33.06752114 103.7031204 27.86276213 91.57755905 22.5390625 79.5 C21.60155563 77.36800468 20.67022075 75.23326325 19.75 73.09375 C18.75799203 70.79796012 17.73206251 68.52222908 16.6875 66.25 C16.15511719 65.05890625 15.62273437 63.8678125 15.07421875 62.640625 C12.19786604 58.97882757 9.46768659 58.61819191 5 58 C4.22011719 57.86335938 3.44023437 57.72671875 2.63671875 57.5859375 C-9.45945059 56.11861636 -9.45945059 56.11861636 -21 59 C-22.85051315 61.40778716 -24.25173626 63.5502414 -25.6875 66.1875 C-26.10467285 66.92637451 -26.5218457 67.66524902 -26.95166016 68.42651367 C-30.47205056 74.77925967 -33.70583094 81.27886445 -36.875 87.8125 C-37.32705811 88.74151123 -37.77911621 89.67052246 -38.24487305 90.62768555 C-41.38466929 97.26017592 -43.81942531 103.99626378 -46 111 C-44.02 111.33 -42.04 111.66 -40 112 C-40 112.99 -40 113.98 -40 115 C-43.43703301 115.19682269 -46.87463427 115.38085152 -50.3125 115.5625 C-51.77719727 115.64661133 -51.77719727 115.64661133 -53.27148438 115.73242188 C-54.20927734 115.78076172 -55.14707031 115.82910156 -56.11328125 115.87890625 C-57.40939331 115.94960327 -57.40939331 115.94960327 -58.73168945 116.02172852 C-61 116 -61 116 -64 115 C-62.56244317 110.84621738 -60.51766576 107.81067281 -57.875 104.3125 C-36.83816363 75.49400023 -18.26895811 41.86120673 -7.98779297 7.60620117 C-6.47846797 2.73560162 -5.60285018 0 0 0 Z M-6 21 C-12.77442793 35.14623957 -12.77442793 35.14623957 -16 50 C-7.98340366 51.12513633 -0.07861415 51.09579384 8 51 C6.82767984 40.15948656 1.8814496 29.47292491 -5 21 C-5.33 21 -5.66 21 -6 21 Z " fill="#745447" transform="translate(301,77)"/>
<path d="M0 0 C-0.46157578 5.09865819 -0.99621671 10.17046742 -1.75390625 15.234375 C-6.43345203 44.33204583 -6.43345203 44.33204583 1 72 C7.09940955 72.42064893 10.13663653 72.08964656 15 68 C22.76516231 60.23483769 23.09220969 48.59507387 23.31640625 38.22265625 C23.33718735 37.41130722 23.35796844 36.59995819 23.37937927 35.76402283 C23.44425643 33.19692661 23.50346922 30.62973663 23.5625 28.0625 C23.60574418 26.31183964 23.64936026 24.56118842 23.69335938 22.81054688 C23.7998735 18.54045829 23.90131114 14.27027632 24 10 C21.36 10.33 18.72 10.66 16 11 C15.61781233 9.34385343 15.28604898 7.67542976 15 6 C17.42535836 3.57464164 23.29159376 4.07038828 26.58203125 3.6953125 C30.01313131 2.99732872 31.36849889 2.16433574 34 0 C34.99 0 35.98 0 37 0 C36.9285376 0.97308105 36.8570752 1.94616211 36.78344727 2.94873047 C35.81444767 17.33793416 35.88702979 31.70956547 35.9375 46.125 C35.94252803 48.64453035 35.94708862 51.16406169 35.95117188 53.68359375 C35.9620673 59.78908424 35.97870086 65.89453739 36 72 C38.64 71.01 41.28 70.02 44 69 C45 70 45 70 45.0625 72.5625 C45.041875 73.366875 45.02125 74.17125 45 75 C42.86391624 75.94937056 40.72759663 76.89814051 38.58984375 77.84375 C36.88929784 78.60296808 35.19373992 79.37347885 33.50390625 80.15625 C32.71886719 80.5171875 31.93382812 80.878125 31.125 81.25 C30.04605469 81.75273437 30.04605469 81.75273437 28.9453125 82.265625 C27 83 27 83 24 83 C23.34 78.71 22.68 74.42 22 70 C20.2675 71.36125 20.2675 71.36125 18.5 72.75 C11.00518445 78.38109588 3.54249323 82.11111223 -6 81 C-11.36513704 78.67173298 -13.10531916 75.49131427 -15.23828125 70.31640625 C-17.50782048 63.41467925 -17.19160682 56.50446132 -17.1875 49.3125 C-17.18737915 47.36621704 -17.18737915 47.36621704 -17.18725586 45.38061523 C-17.11635574 33.37461253 -16.02844741 21.82347275 -14 10 C-14.99 10.66 -15.98 11.32 -17 12 C-18.32 12 -19.64 12 -21 12 C-21.33 10.02 -21.66 8.04 -22 6 C-21.05898438 5.81824219 -20.11796875 5.63648437 -19.1484375 5.44921875 C-17.90320313 5.19785156 -16.65796875 4.94648437 -15.375 4.6875 C-14.14523437 4.44386719 -12.91546875 4.20023437 -11.6484375 3.94921875 C-7.74643731 2.93403026 -3.94399626 0 0 0 Z " fill="#745347" transform="translate(745,112)"/>
<path d="M0 0 C8.2693408 6.46963436 11.20158721 15.61932598 12.55078125 25.73828125 C13.81765151 38.75889221 12.13364127 52.48206966 4.83203125 63.62890625 C2.33203125 66.50390625 2.33203125 66.50390625 -0.16796875 68.62890625 C-1.31265625 69.68078125 -1.31265625 69.68078125 -2.48046875 70.75390625 C-10.7013444 76.48940089 -19.50404881 76.6309478 -29.16796875 75.62890625 C-36.57268462 73.55443332 -42.06264754 69.07545839 -46.16796875 62.62890625 C-52.59548308 51.03267861 -52.23707769 33.68915981 -48.72705078 21.12768555 C-45.70244659 12.0099176 -40.83661141 4.36983334 -32.33203125 -0.375 C-21.53979665 -5.34254481 -10.38951938 -6.57066901 0 0 Z M-29.78515625 7.0859375 C-37.78001149 16.00675055 -38.4985435 30.20742034 -38.16796875 41.62890625 C-37.23806129 50.80326385 -34.85160788 59.88641436 -27.96875 66.359375 C-24.63326778 68.71085379 -21.21704989 69.52290936 -17.16796875 69.62890625 C-11.63996675 68.15477238 -8.13846972 65.48307217 -5.16796875 60.62890625 C0.93914192 46.29714402 1.4911576 29.40901328 -3.86816406 14.70825195 C-6.07550073 9.34848331 -8.50985565 5.02125121 -13.79296875 2.25390625 C-19.95253151 0.63296868 -25.14936732 2.94770707 -29.78515625 7.0859375 Z " fill="#745346" transform="translate(698.16796875,117.37109375)"/>
<path d="M0 0 C-0.3125 1.875 -0.3125 1.875 -1 4 C-4.70534761 6.47023174 -6.56407104 6.06978848 -10.84375 5.77734375 C-13.64323293 6.06642079 -14.22366762 6.85923107 -16 9 C-18.91800525 15.71839895 -19.63417937 22.89629741 -20.1875 30.125 C-20.26935547 31.08148438 -20.35121094 32.03796875 -20.43554688 33.0234375 C-20.6331495 35.34817429 -20.81794612 37.67399391 -21 40 C-15.39 40 -9.78 40 -4 40 C-3.67 40.66 -3.34 41.32 -3 42 C-4.01953125 44.015625 -4.01953125 44.015625 -6 46 C-8.73885424 46.13170447 -11.00133489 46.06601942 -13.6875 45.75 C-14.38939453 45.68425781 -15.09128906 45.61851563 -15.81445312 45.55078125 C-17.54486164 45.38598044 -19.27278524 45.19545358 -21 45 C-20.99214478 46.0971936 -20.99214478 46.0971936 -20.98413086 47.21655273 C-20.9380594 54.90115633 -20.94961744 62.58370705 -20.99024963 70.26826477 C-21.01580073 76.78212174 -20.95521717 83.29248896 -20.87443542 89.80583191 C-20.82279088 94.93968413 -20.81942897 100.07298335 -20.82400513 105.20706177 C-20.81635772 107.7697549 -20.78935087 110.33246598 -20.74264526 112.89474487 C-20.36628765 134.64363191 -20.36628765 134.64363191 -24.42333984 139.71044922 C-27.24398723 142.12396411 -29.49785558 143.78221253 -33 145 C-33.99 144.67 -34.98 144.34 -36 144 C-35.93941406 143.44054687 -35.87882813 142.88109375 -35.81640625 142.3046875 C-34.53687699 130.0605767 -33.81990466 117.80304387 -33.4375 105.5 C-33.41665344 104.83722046 -33.39580688 104.17444092 -33.37432861 103.49157715 C-33.00440022 91.41200609 -32.89247275 79.33478832 -32.875 67.25 C-32.87111771 65.99546021 -32.87111771 65.99546021 -32.86715698 64.71557617 C-32.86131987 62.33638188 -32.86286662 59.95732019 -32.8671875 57.578125 C-32.86520859 56.86912048 -32.86322968 56.16011597 -32.8611908 55.42962646 C-32.87720434 52.03620883 -33.16818244 49.32727023 -34 46 C-37.63 46 -41.26 46 -45 46 C-45.33 45.34 -45.66 44.68 -46 44 C-44.85546875 42.015625 -44.85546875 42.015625 -43 40 C-40.30078125 39.609375 -40.30078125 39.609375 -37.3125 39.75 C-36.31863281 39.78609375 -35.32476563 39.8221875 -34.30078125 39.859375 C-33.54152344 39.90578125 -32.78226563 39.9521875 -32 40 C-32.01047363 39.30962646 -32.02094727 38.61925293 -32.03173828 37.90795898 C-32.07355697 34.75117701 -32.09940802 31.59445355 -32.125 28.4375 C-32.14175781 27.35146484 -32.15851562 26.26542969 -32.17578125 25.14648438 C-32.25606552 11.93972174 -32.25606552 11.93972174 -27.9375 6.3125 C-19.06110868 -0.67529742 -10.83825844 -0.47874516 0 0 Z " fill="#745347" transform="translate(642,74)"/>
<path d="M0 0 C-1.98 4.29 -3.96 8.58 -6 13 C-7.65 12.67 -9.3 12.34 -11 12 C-10.67 10.68 -10.34 9.36 -10 8 C-14.98692154 4.49854445 -17.94006266 3.57626674 -23.984375 4.34765625 C-26.38907054 5.12592012 -27.42632543 6.04122682 -29 8 C-30.28385186 11.68037533 -30.19799379 14.26668105 -28.75 17.8125 C-25.04581608 24.49530604 -18.2116032 28.79096076 -12.046875 33.03125 C-5.00933478 37.8767695 0.2409329 42.72279869 3 51 C3.50723134 57.21358393 3.78986129 62.78894073 0 68 C-5.35604548 74.07806141 -10.96497522 76.98087136 -19 78 C-27.05507154 78.23967224 -33.76361491 76.44208583 -41 73 C-40.53199289 68.94393835 -40.12046792 65.53411321 -38 62 C-34.54192219 62.63161239 -32.24607583 64.00272986 -29.375 66 C-24.03530232 69.68989076 -20.54613322 70.81535467 -14 70 C-10.65722897 67.9107681 -10.13371864 66.47247253 -9.0625 62.6875 C-8.96312473 56.82435922 -10.24086053 53.85304371 -14.1953125 49.6875 C-18.65188282 45.52976675 -23.26891094 41.7566999 -28.16577148 38.14233398 C-39.16855124 29.98415234 -39.16855124 29.98415234 -41 24 C-42.08001165 16.61992039 -41.50333398 10.09795716 -37 4 C-27.13226645 -6.14183726 -12.03243829 -5.12492742 0 0 Z " fill="#735346" transform="translate(585,116)"/>
<path d="M0 0 C-0.47391026 4.27143385 -0.95502394 8.54202589 -1.4375 12.8125 C-1.57220703 14.02744141 -1.70691406 15.24238281 -1.84570312 16.49414062 C-1.97783203 17.65751953 -2.10996094 18.82089844 -2.24609375 20.01953125 C-2.36654053 21.09307861 -2.4869873 22.16662598 -2.61108398 23.27270508 C-3 26 -3 26 -4 29 C-3.07058594 28.86722656 -2.14117187 28.73445313 -1.18359375 28.59765625 C4.87760417 27.73177083 10.93880208 26.86588542 17 26 C16.125 31.875 16.125 31.875 15 33 C13.58879098 33.22571184 12.16823957 33.39388349 10.74609375 33.53515625 C9.46508789 33.66567383 9.46508789 33.66567383 8.15820312 33.79882812 C6.81145508 33.9293457 6.81145508 33.9293457 5.4375 34.0625 C4.53580078 34.15337891 3.63410156 34.24425781 2.70507812 34.33789062 C0.47041566 34.56253923 -1.76457839 34.78305769 -4 35 C-5.80542265 50.14451619 -7.05371198 65.17801836 -7.25 80.4375 C-7.27143066 81.34918945 -7.29286133 82.26087891 -7.31494141 83.20019531 C-7.34489547 89.26866687 -6.45319168 94.41923007 -4 100 C-2.97781247 101.21334165 -2.97781247 101.21334165 -0.875 101.375 C2.25833176 100.96630455 3.0447045 100.35279751 5.4375 98.4375 C8.25552558 96.23746248 8.64928321 95.98086999 12.4375 96.1875 C13.283125 96.455625 14.12875 96.72375 15 97 C15 97.99 15 98.98 15 100 C7.38845117 106.05620521 -1.09404287 111.11841451 -11 110 C-15.36637748 107.47720412 -17.08797418 104.59007254 -19 100 C-19.28308055 97.35043726 -19.42124779 94.94749699 -19.3984375 92.3046875 C-19.40239532 91.56680496 -19.40635315 90.82892242 -19.41043091 90.06867981 C-19.41616569 87.67039896 -19.39719123 85.27317369 -19.375 82.875 C-19.37234131 82.05907379 -19.36968262 81.24314758 -19.36694336 80.40249634 C-19.30854122 65.11068284 -18.06198265 50.15802721 -16 35 C-22.435 35.495 -22.435 35.495 -29 36 C-29 34.02 -29 32.04 -29 30 C-22.565 29.505 -22.565 29.505 -16 29 C-15.77939132 27.37434962 -15.55932516 25.74862402 -15.34179688 24.12255859 C-15.15478647 22.74319336 -14.96202549 21.3645962 -14.76367188 19.98681641 C-14.23682348 16.24141935 -13.99359165 12.64952023 -14 8.875 C-13.8046875 6.80859375 -13.8046875 6.80859375 -13 5 C-9.0631288 2.01559764 -4.97543318 0 0 0 Z " fill="#755447" transform="translate(435,85)"/>
<path d="M0 0 C-0.09087891 1.2379834 -0.09087891 1.2379834 -0.18359375 2.50097656 C-1.81822365 25.93276748 -2.20080242 49.32041487 -2.18847656 72.79978943 C-2.18749944 75.1263349 -2.18847437 77.4528737 -2.18969727 79.77941895 C-2.19064906 83.49003977 -2.1850059 87.20059412 -2.17376137 90.91119766 C-2.16993513 92.29608977 -2.16751644 93.68098656 -2.16658592 95.06588364 C-2.16444434 96.9802951 -2.15501735 98.89469422 -2.14526367 100.80908203 C-2.14145187 101.88835968 -2.13764008 102.96763733 -2.13371277 104.07962036 C-2.00793523 106.82668902 -1.62128243 109.32581873 -1 112 C3.455 111.01 3.455 111.01 8 110 C8.33 111.65 8.66 113.3 9 115 C7.98679687 115.25394531 6.97359375 115.50789063 5.9296875 115.76953125 C4.57803342 116.11683126 3.22647599 116.46450759 1.875 116.8125 C1.20984375 116.97814453 0.5446875 117.14378906 -0.140625 117.31445312 C-3.4325833 118.1697168 -6.18074893 119.09124554 -9.2421875 120.63671875 C-12 122 -12 122 -16 122 C-15.97494385 121.18176758 -15.9498877 120.36353516 -15.92407227 119.52050781 C-15.31528883 99.34920733 -14.83386087 79.1765953 -14.4375 59 C-14.41535431 57.90546509 -14.39320862 56.81093018 -14.37039185 55.68322754 C-14.15015617 44.72709304 -13.95805544 33.7709177 -13.91015625 22.8125 C-13.90342392 22.00498291 -13.89669159 21.19746582 -13.88975525 20.36547852 C-13.88457348 16.12809101 -14.15738178 12.17439309 -15 8 C-18.3 8.33 -21.6 8.66 -25 9 C-24.67 7.35 -24.34 5.7 -24 4 C-22.81921875 3.87882812 -21.6384375 3.75765625 -20.421875 3.6328125 C-18.86453957 3.4639448 -17.30725023 3.29465165 -15.75 3.125 C-14.97269531 3.04636719 -14.19539062 2.96773438 -13.39453125 2.88671875 C-8.71863386 2.3671746 -4.47868116 0 0 0 Z " fill="#745347" transform="translate(824,74)"/>
<path d="M0 0 C2.08951535 3.13427303 2.23721603 3.59984194 2.04345703 7.10644531 C2.00328461 7.93378174 1.96311218 8.76111816 1.92172241 9.61352539 C1.86763214 10.50934326 1.81354187 11.40516113 1.7578125 12.328125 C1.71040924 13.26035889 1.66300598 14.19259277 1.61416626 15.15307617 C1.51216127 17.14951568 1.40571891 19.14573246 1.29528809 21.14172363 C1.01146505 26.32235867 0.76893791 31.50493088 0.5234375 36.6875 C0.47505737 37.69540588 0.42667725 38.70331177 0.37683105 39.74176025 C-0.46472238 57.5089927 0.08796643 75.00673708 1.28808594 92.73730469 C1.72252093 99.16844321 2.13312379 105.55181662 2 112 C-0.05824429 112.84378975 -2.12179786 113.67463622 -4.1875 114.5 C-5.33605469 114.9640625 -6.48460937 115.428125 -7.66796875 115.90625 C-10.71990077 116.90805652 -12.83115072 117.23870804 -16 117 C-15.52724557 114.59823865 -15.04639417 112.20261205 -14.5 109.81640625 C-11.87434906 97.9804641 -11.84712516 85.85418755 -11.8671875 73.78125 C-11.86623077 72.48030396 -11.86527405 71.17935791 -11.86428833 69.83898926 C-11.86282975 67.10960679 -11.86490572 64.38025746 -11.86962891 61.65087891 C-11.87532504 58.19546112 -11.87203603 54.74012107 -11.86605644 51.28470612 C-11.86152353 47.92938159 -11.86471997 44.57407671 -11.8671875 41.21875 C-11.86516327 40.00062622 -11.86313904 38.78250244 -11.86105347 37.52746582 C-11.88951173 26.91917159 -12.4991744 16.50577923 -14 6 C-9.38 4.02 -4.76 2.04 0 0 Z " fill="#745447" transform="translate(520,78)"/>
<path d="M0 0 C-0.13957123 0.77143845 -0.27914246 1.54287689 -0.42294312 2.33769226 C-1.84131081 10.73359497 -2.3351721 18.88939666 -2.4140625 27.39453125 C-2.43342865 28.70789963 -2.4527948 30.02126801 -2.4727478 31.37443542 C-2.52342926 34.8183423 -2.56339107 38.26228763 -2.60089111 41.70635986 C-2.64133913 45.23987835 -2.69224223 48.77324588 -2.7421875 52.30664062 C-2.83818574 59.20431597 -2.92282636 66.10208898 -3 73 C-0.36 72.01 2.28 71.02 5 70 C5.33 71.32 5.66 72.64 6 74 C2.09859872 76.4746031 -1.94258729 78.39106359 -6.1875 80.1875 C-6.81591797 80.46013672 -7.44433594 80.73277344 -8.09179688 81.01367188 C-12.74647556 83 -12.74647556 83 -15 83 C-14.99777939 82.27718338 -14.99555878 81.55436676 -14.99327087 80.80964661 C-14.97309283 73.94126113 -14.9579376 67.07288019 -14.94818783 60.20447254 C-14.94300662 56.67479483 -14.93599741 53.14514195 -14.92456055 49.61547852 C-14.9114462 45.54182724 -14.90673249 41.46820135 -14.90234375 37.39453125 C-14.89718246 36.1492012 -14.89202118 34.90387115 -14.88670349 33.62080383 C-14.88620514 25.70153407 -15.27365825 17.8858858 -16 10 C-18.31 10.33 -20.62 10.66 -23 11 C-22.67 9.35 -22.34 7.7 -22 6 C-21.28714844 5.90203125 -20.57429688 5.8040625 -19.83984375 5.703125 C-13.15193282 4.67071044 -13.15193282 4.67071044 -7.0625 1.875 C-4 0 -4 0 0 0 Z " fill="#735347" transform="translate(390,112)"/>
<path d="M0 0 C3.55605455 1.74447959 5.50667717 3.34223622 7.875 6.5 C9.76458362 12.3787046 10.4210597 19.07893284 7.6640625 24.74609375 C6 27 6 27 3 29 C-0.1796875 29.3359375 -0.1796875 29.3359375 -3.875 29.375 C-5.08929688 29.40335938 -6.30359375 29.43171875 -7.5546875 29.4609375 C-11.58272557 28.92203898 -13.18426175 27.87807932 -16 25 C-18.09623285 18.71130144 -17.68066625 11.77383316 -15.03515625 5.6953125 C-11.61547036 0.09477033 -6.05236534 -1.18389581 0 0 Z M-6 9 C-8.16617415 12.24926122 -8.21335669 12.5985242 -7.625 16.1875 C-7.41875 17.445625 -7.2125 18.70375 -7 20 C-4.69 20 -2.38 20 0 20 C0.05399736 18.54207116 0.09279177 17.08357288 0.125 15.625 C0.15980469 14.40683594 0.15980469 14.40683594 0.1953125 13.1640625 C0.21370051 10.78657757 0.21370051 10.78657757 -2 9 C-3.32 9 -4.64 9 -6 9 Z " fill="#755649" transform="translate(153,119)"/>
<path d="M0 0 C3.7950964 2.90688235 5.5066622 5.52653632 7 10 C7.67758729 16.04548659 7.84273068 22.00445011 4 27 C-1.02075774 29.56875977 -6.55386678 29.80252417 -11.99609375 28.53515625 C-15.27272588 27.38390712 -16.79306656 26.38687556 -18.4375 23.3125 C-19.54828231 16.7712264 -19.46128316 11.21180987 -17 5 C-11.88803976 -1.02949157 -7.46048729 -1.91429024 0 0 Z M-8 8 C-10.30441554 11.45662331 -10.25860135 12.94857881 -10 17 C-9.67 17.66 -9.34 18.32 -9 19 C-6.02019764 19.74664647 -6.02019764 19.74664647 -3 20 C-1.12356239 18.12356239 -1.82015013 15.50194299 -1.76953125 13.0078125 C-1.88168663 10.68325672 -1.88168663 10.68325672 -4 8 C-5.32 8 -6.64 8 -8 8 Z " fill="#735448" transform="translate(56,80)"/>
<path d="M0 0 C3.92469797 3.3003142 5.54847026 5.76743864 6.21875 10.90625 C6.2290625 12.1953125 6.239375 13.484375 6.25 14.8125 C6.2809375 16.1015625 6.311875 17.390625 6.34375 18.71875 C5.75 22.3125 5.75 22.3125 3.6875 25.2421875 C-0.01965967 27.85494631 -2.24392125 27.98256079 -6.75 27.9375 C-8.68359375 27.95683594 -8.68359375 27.95683594 -10.65625 27.9765625 C-15.17260036 27.1420195 -16.62472656 26.06218301 -19.25 22.3125 C-19.75881759 19.41822582 -19.95494439 17.24500343 -19.875 14.375 C-19.89433594 13.68470703 -19.91367188 12.99441406 -19.93359375 12.28320312 C-19.87913577 6.53788633 -18.13264649 4.20102929 -14.25 0.3125 C-9.75521558 -2.98367524 -4.77325763 -2.47842223 0 0 Z M-10.25 8.3125 C-10.25 11.6125 -10.25 14.9125 -10.25 18.3125 C-7.94 18.3125 -5.63 18.3125 -3.25 18.3125 C-3.19600264 16.85457116 -3.15720823 15.39607288 -3.125 13.9375 C-3.09019531 12.71933594 -3.09019531 12.71933594 -3.0546875 11.4765625 C-3.03629949 9.09907757 -3.03629949 9.09907757 -5.25 7.3125 C-8.1754644 7.0888932 -8.1754644 7.0888932 -10.25 8.3125 Z " fill="#755548" transform="translate(100.25,120.6875)"/>
<path d="M0 0 C4.08696362 2.43478683 5.56420463 4.54147752 7 9 C7.30078125 12.15625 7.30078125 12.15625 7.3125 15.5 C7.32925781 16.6034375 7.34601563 17.706875 7.36328125 18.84375 C6.96152234 22.33430052 6.08454898 24.20031378 4 27 C1.0129054 28.4935473 -2.0373448 28.30631228 -5.3125 28.375 C-7.28669922 28.44847656 -7.28669922 28.44847656 -9.30078125 28.5234375 C-13 28 -13 28 -15.94921875 25.9453125 C-18.54618541 22.21557371 -18.60828106 20.01171074 -18.5 15.5 C-18.4896875 14.2109375 -18.479375 12.921875 -18.46875 11.59375 C-17.80551841 6.5089745 -16.13053572 4.02286565 -12.375 0.625 C-7.90393109 -1.52773688 -4.71921083 -1.35829684 0 0 Z M-7 8 C-9.21370051 9.78657757 -9.21370051 9.78657757 -9.1953125 12.1640625 C-9.17210937 12.97617188 -9.14890625 13.78828125 -9.125 14.625 C-9.10695312 15.44226563 -9.08890625 16.25953125 -9.0703125 17.1015625 C-9.04710937 17.72804688 -9.02390625 18.35453125 -9 19 C-7.0085944 19.38133299 -5.00720923 19.71325582 -3 20 C-1.41105928 18.41105928 -1.83001589 16.75198576 -1.8125 14.5625 C-1.79123047 13.35787109 -1.79123047 13.35787109 -1.76953125 12.12890625 C-1.79837644 9.78369367 -1.79837644 9.78369367 -4 8 C-4.99 8 -5.98 8 -7 8 Z " fill="#745448" transform="translate(198,80)"/>
<path d="M0 0 C1.69407817 3.28227646 1.0454351 5.49371377 0 8.9375 C-3.92282451 11.76558278 -7.22042837 12.46856351 -12 11.9375 C-15 9.9375 -15 9.9375 -15.875 8.125 C-16.05755402 4.93030472 -14.91229227 3.44326228 -13 0.9375 C-9.24693567 -1.87729825 -4.14447863 -2.20175427 0 0 Z " fill="#775348" transform="translate(389,82.0625)"/>
<path d="M0 0 C-0.875 5.875 -0.875 5.875 -2 7 C-4.85877909 7.23701239 -7.69883297 7.42219182 -10.5625 7.5625 C-11.36880859 7.60568359 -12.17511719 7.64886719 -13.00585938 7.69335938 C-15.00368805 7.79975262 -17.0018207 7.90040888 -19 8 C-18.01 7.34 -17.02 6.68 -16 6 C-16.99 5.67 -17.98 5.34 -19 5 C-19 4.34 -19 3.68 -19 3 C-16.58424393 2.49521515 -14.16755639 1.99602358 -11.75 1.5 C-11.06808594 1.35691406 -10.38617188 1.21382813 -9.68359375 1.06640625 C-6.35366879 0.38748951 -3.41667449 0 0 0 Z " fill="#674B40" transform="translate(452,111)"/>
<path d="M0 0 C0 0.99 0 1.98 0 3 C-2.23046875 4.82421875 -2.23046875 4.82421875 -5.1875 6.6875 C-6.15042969 7.31011719 -7.11335938 7.93273437 -8.10546875 8.57421875 C-11.07483066 10.03685991 -12.74832619 10.31506163 -16 10 C-12.45828313 2.91656626 -8.70845959 -2.48813131 0 0 Z " fill="#644B3D" transform="translate(450,182)"/>
<path d="M0 0 C2.68092691 2.68092691 2.38670257 4.39167363 2.625 8.125 C2.69976562 9.22070312 2.77453125 10.31640625 2.8515625 11.4453125 C2.92503906 12.70988281 2.92503906 12.70988281 3 14 C1.68 14 0.36 14 -1 14 C-1.66 14.66 -2.32 15.32 -3 16 C-3.144375 14.865625 -3.28875 13.73125 -3.4375 12.5625 C-3.61171478 9.19222799 -3.61171478 9.19222799 -5 8 C-5.66 8.99 -6.32 9.98 -7 11 C-6.85969405 7.98342209 -6.70648535 5.76158727 -4.59765625 3.48828125 C-3.11095765 2.26743934 -1.55865102 1.12753478 0 0 Z " fill="#6E4E41" transform="translate(44,85)"/>
<path d="M0 0 C2.18983219 3.55170082 2.29137554 6.53745377 2.37890625 10.6640625 C2.41306641 11.95054687 2.44722656 13.23703125 2.48242188 14.5625 C2.50976033 15.91665378 2.53644565 17.2708209 2.5625 18.625 C2.62034705 21.28406768 2.68583328 23.94271246 2.75390625 26.6015625 C2.77783447 27.78057129 2.8017627 28.95958008 2.82641602 30.17431641 C2.81183978 32.94995469 2.81183978 32.94995469 4 35 C2.515 35.495 2.515 35.495 1 36 C0 35 0 35 -0.11352539 31.67358398 C-0.11336629 30.19774444 -0.10767314 28.72189931 -0.09765625 27.24609375 C-0.09553383 26.08292381 -0.09553383 26.08292381 -0.09336853 24.89625549 C-0.08775345 22.40996506 -0.07519846 19.9237634 -0.0625 17.4375 C-0.05748694 15.75586067 -0.0529237 14.07421994 -0.04882812 12.39257812 C-0.03777913 8.26168434 -0.02050445 4.13085724 0 0 Z " fill="#765F51" transform="translate(131,163)"/>
<path d="M0 0 C-1.32 1.32 -2.64 2.64 -4 4 C-3.34 4.33 -2.68 4.66 -2 5 C-3.32 5 -4.64 5 -6 5 C-6 6.98 -6 8.96 -6 11 C-6.33 11 -6.66 11 -7 11 C-7.33 9.02 -7.66 7.04 -8 5 C-11.3 5.33 -14.6 5.66 -18 6 C-17.67 4.35 -17.34 2.7 -17 1 C-15.10440036 0.83069605 -13.20850769 0.66467136 -11.3125 0.5 C-10.25675781 0.4071875 -9.20101562 0.314375 -8.11328125 0.21875 C-5.39363975 0.0276585 -2.72460144 -0.04043935 0 0 Z " fill="#5E4339" transform="translate(817,77)"/>
<path d="M0 0 C2 0 2 0 4.5625 2.1875 C7.01134483 5.01309018 7.68762137 6.35558268 8 10 C5 11 5 11 1.875 9.9375 C-1 8 -1 8 -1.875 4.8125 C-1.91625 3.884375 -1.9575 2.95625 -2 2 C-1.34 2 -0.68 2 0 2 C0 1.34 0 0.68 0 0 Z M3 0 C3.99 0.495 3.99 0.495 5 1 C4.01 1.495 4.01 1.495 3 2 C3 1.34 3 0.68 3 0 Z " fill="#725248" transform="translate(138,129)"/>
<path d="M0 0 C5.28 0 10.56 0 16 0 C15 4 15 4 12 6 C9.26009592 5.96856707 6.71582146 5.44521663 4 5 C3.67 4.01 3.34 3.02 3 2 C2.01 1.34 1.02 0.68 0 0 Z " fill="#725244" transform="translate(626,74)"/>
<path d="M0 0 C3.64243036 0.59468251 4.77418769 1.68361562 7.0625 4.5 C6.7325 5.16 6.4025 5.82 6.0625 6.5 C2.4325 6.5 -1.1975 6.5 -4.9375 6.5 C-5.2675 5.84 -5.5975 5.18 -5.9375 4.5 C-4.22288215 1.45179049 -3.52623333 0.60020993 0 0 Z " fill="#69503D" transform="translate(601.9375,113.5)"/>
<path d="M0 0 C1.31896465 0.92838287 2.62998689 1.86805732 3.9375 2.8125 C4.66839844 3.33457031 5.39929688 3.85664063 6.15234375 4.39453125 C8 6 8 6 9 9 C8.0625 11.6875 8.0625 11.6875 7 14 C5.02 14 3.04 14 1 14 C1.66 11.03 2.32 8.06 3 5 C2.01 4.34 1.02 3.68 0 3 C0 2.01 0 1.02 0 0 Z " fill="#76564C" transform="translate(549,178)"/>
<path d="M0 0 C0.66 1.65 1.32 3.3 2 5 C1.030625 5.28875 0.06125 5.5775 -0.9375 5.875 C-4.10664203 6.64214682 -4.10664203 6.64214682 -5 9 C-5.66 9 -6.32 9 -7 9 C-7 11.31 -7 13.62 -7 16 C-7.99 16.33 -8.98 16.66 -10 17 C-9.60190889 14.91303753 -9.1807572 12.8304656 -8.75 10.75 C-8.51796875 9.58984375 -8.2859375 8.4296875 -8.046875 7.234375 C-6.5806567 2.70441697 -4.97504805 0 0 0 Z " fill="#694F45" transform="translate(301,77)"/>
<path d="M0 0 C0.33 0 0.66 0 1 0 C1 12.54 1 25.08 1 38 C2.98 38 4.96 38 7 38 C6.34 38.66 5.68 39.32 5 40 C1.375 39.625 1.375 39.625 -2 39 C-2 36 -2 36 -1 34 C-0.84355828 31.44893971 -0.74178611 28.92081337 -0.68359375 26.3671875 C-0.66281265 25.61535187 -0.64203156 24.86351624 -0.62062073 24.08889771 C-0.55517295 21.68435915 -0.49626262 19.27971033 -0.4375 16.875 C-0.39431023 15.24608229 -0.35069579 13.61717578 -0.30664062 11.98828125 C-0.19949649 7.99230085 -0.09821567 3.99620941 0 0 Z " fill="#745B4F" transform="translate(139,160)"/>
<path d="M0 0 C0 1.32 0 2.64 0 4 C-3.63 4.66 -7.26 5.32 -11 6 C-11 4.33333333 -11 2.66666667 -11 1 C-3.57142857 -1.42857143 -3.57142857 -1.42857143 0 0 Z " fill="#6E4F45" transform="translate(833,185)"/>
<path d="M0 0 C4.82360189 -0.19294408 8.49646738 0.24252386 13 2 C12.34 3.32 11.68 4.64 11 6 C10.46375 5.67 9.9275 5.34 9.375 5 C6.4608939 3.77300796 4.13132292 3.85766714 1 4 C0.67 4.66 0.34 5.32 0 6 C-0.66 5.34 -1.32 4.68 -2 4 C-1.34 2.68 -0.68 1.36 0 0 Z " fill="#76574B" transform="translate(570,113)"/>
<path d="M0 0 C0.33 0 0.66 0 1 0 C1.1953125 2.01822917 1.390625 4.03645833 1.5859375 6.0546875 C1.86374749 8.22668245 1.86374749 8.22668245 4 10 C3.34 10.66 2.68 11.32 2 12 C1.62792646 14.71615864 1.62792646 14.71615864 1.5859375 17.8828125 C1.54726562 19.04941406 1.50859375 20.21601562 1.46875 21.41796875 C1.4378125 22.64128906 1.406875 23.86460938 1.375 25.125 C1.33632812 26.35605469 1.29765625 27.58710937 1.2578125 28.85546875 C1.1633001 31.90349376 1.07774506 34.95150862 1 38 C0.67 38 0.34 38 0 38 C0 25.46 0 12.92 0 0 Z " fill="#7D5A4F" transform="translate(211,99)"/>
<path d="M0 0 C-0.33 0.66 -0.66 1.32 -1 2 C-0.34 2 0.32 2 1 2 C1.33 3.65 1.66 5.3 2 7 C1.34 7 0.68 7 0 7 C0 6.01 0 5.02 0 4 C-0.99 4.66 -1.98 5.32 -3 6 C-4.32 6 -5.64 6 -7 6 C-7.33 4.02 -7.66 2.04 -8 0 C-4.71303767 -0.79953138 -3.28976808 -1.09658936 0 0 Z " fill="#674F43" transform="translate(731,118)"/>
<path d="M0 0 C0.33 0.66 0.66 1.32 1 2 C1.66 2.33 2.32 2.66 3 3 C3 3.99 3 4.98 3 6 C-0.3125 6.6875 -0.3125 6.6875 -4 7 C-5.9375 5.5625 -5.9375 5.5625 -7 4 C-3.17391304 0 -3.17391304 0 0 0 Z " fill="#765747" transform="translate(568,187)"/>
<path d="M0 0 C1.65 0.33 3.3 0.66 5 1 C4.34 2.32 3.68 3.64 3 5 C4.65 5 6.3 5 8 5 C8.33 5.66 8.66 6.32 9 7 C7.04233719 7.08082094 5.08373272 7.13910778 3.125 7.1875 C1.48917969 7.23970703 1.48917969 7.23970703 -0.1796875 7.29296875 C-1.11039063 7.19628906 -2.04109375 7.09960938 -3 7 C-3.66 6.01 -4.32 5.02 -5 4 C-1.25 2.875 -1.25 2.875 1 4 C0.67 2.68 0.34 1.36 0 0 Z " fill="#694E41" transform="translate(676,186)"/>
<path d="M0 0 C0.33 0.99 0.66 1.98 1 3 C1.66 3.33 2.32 3.66 3 4 C2.875 5.75 2.875 5.75 2 8 C-1.0625 10.25 -1.0625 10.25 -4 12 C-4 9 -4 9 -2 6.8125 C-1.34 6.214375 -0.68 5.61625 0 5 C-0.66 4.34 -1.32 3.68 -2 3 C-1.34 2.01 -0.68 1.02 0 0 Z " fill="#684C3E" transform="translate(764,175)"/>
<path d="M0 0 C-0.99 0.495 -0.99 0.495 -2 1 C-2.75243555 2.92638012 -2.75243555 2.92638012 -3 5 C-2.67 5.66 -2.34 6.32 -2 7 C-4.64 7.33 -7.28 7.66 -10 8 C-7.95662621 2.18424383 -6.49689233 -0.52677505 0 0 Z " fill="#604339" transform="translate(572,112)"/>
<path d="M0 0 C1.32 0.33 2.64 0.66 4 1 C4 4 4 4 2.6875 5.6875 C1 7 1 7 -2 7 C-2.33 5.68 -2.66 4.36 -3 3 C-2.01 2.67 -1.02 2.34 0 2 C0 1.34 0 0.68 0 0 Z " fill="#705344" transform="translate(376,85)"/>
<path d="M0 0 C3 2 3 2 4 5.0625 C4.33 6.031875 4.66 7.00125 5 8 C5.99 8.33 6.98 8.66 8 9 C7.67 10.65 7.34 12.3 7 14 C6.34 14 5.68 14 5 14 C4.16235732 12.04350603 3.33000941 10.08474444 2.5 8.125 C2.0359375 7.03445312 1.571875 5.94390625 1.09375 4.8203125 C0 2 0 2 0 0 Z " fill="#684F43" transform="translate(327,162)"/>
<path d="M0 0 C1.85625 0.556875 1.85625 0.556875 3.75 1.125 C7.13262618 1.98984427 7.13262618 1.98984427 10.5 1.125 C10.995 0.75375 11.49 0.3825 12 0 C12 0.66 12 1.32 12 2 C6.375 5 6.375 5 3 5 C2.34 4.34 1.68 3.68 1 3 C0.34 2.67 -0.32 2.34 -1 2 C-0.67 1.34 -0.34 0.68 0 0 Z " fill="#664C3F" transform="translate(568,187)"/>
<path d="M0 0 C0.66 0 1.32 0 2 0 C2.79953138 3.28696233 3.09658936 4.71023192 2 8 C1.01 8 0.02 8 -1 8 C-1.33 6.02 -1.66 4.04 -2 2 C-1.34 2 -0.68 2 0 2 C0 1.34 0 0.68 0 0 Z M3 0 C3.99 0.495 3.99 0.495 5 1 C4.01 1.495 4.01 1.495 3 2 C3 1.34 3 0.68 3 0 Z " fill="#67493E" transform="translate(138,129)"/>
<path d="M0 0 C1.65 0.33 3.3 0.66 5 1 C5 1.99 5 2.98 5 4 C5.66 4 6.32 4 7 4 C6.67 4.66 6.34 5.32 6 6 C5.38125 5.814375 4.7625 5.62875 4.125 5.4375 C1.95839822 4.76313824 1.95839822 4.76313824 0 6 C-0.66 5.67 -1.32 5.34 -2 5 C-1.34 3.35 -0.68 1.7 0 0 Z " fill="#765547" transform="translate(678,113)"/>
<path d="M0 0 C0.66 0 1.32 0 2 0 C2 2.97 2 5.94 2 9 C-0.3125 9.625 -0.3125 9.625 -3 10 C-3.99 9.34 -4.98 8.68 -6 8 C-4.02 8 -2.04 8 0 8 C0 5.36 0 2.72 0 0 Z " fill="#755F4F" transform="translate(102,190)"/>
<path d="M0 0 C5.19209404 -0.21192221 9.126739 0.4087311 14 2 C14 2.33 14 2.66 14 3 C11.36 2.67 8.72 2.34 6 2 C6 2.66 6 3.32 6 4 C5.01 4 4.02 4 3 4 C3 3.01 3 2.02 3 1 C2.01 1.33 1.02 1.66 0 2 C0 1.34 0 0.68 0 0 Z " fill="#64493D" transform="translate(680,113)"/>
<path d="M0 0 C0.99 0.495 0.99 0.495 2 1 C2 1.66 2 2.32 2 3 C4.475 3.99 4.475 3.99 7 5 C4.66785852 6.20628008 2.50357861 7.1654738 0 8 C0 5.36 0 2.72 0 0 Z " fill="#786158" transform="translate(210,191)"/>
<path d="M0 0 C0.53625 0.226875 1.0725 0.45375 1.625 0.6875 C-0.06679328 2.72969706 -1.01227666 3.60543306 -3.63671875 4.19921875 C-4.43722656 4.25722656 -5.23773438 4.31523438 -6.0625 4.375 C-6.87074219 4.44074219 -7.67898438 4.50648437 -8.51171875 4.57421875 C-9.43404297 4.63029297 -9.43404297 4.63029297 -10.375 4.6875 C-7.46233137 1.77483137 -4.2386727 -0.55772009 0 0 Z " fill="#674A42" transform="translate(387.375,89.3125)"/>
<path d="M0 0 C0.33 0.66 0.66 1.32 1 2 C4.465 1.505 4.465 1.505 8 1 C8 1.99 8 2.98 8 4 C3.545 4.495 3.545 4.495 -1 5 C-0.67 3.35 -0.34 1.7 0 0 Z " fill="#70554A" transform="translate(800,78)"/>
<path d="M0 0 C1.65 0 3.3 0 5 0 C5.66 2.31 6.32 4.62 7 7 C3.17053157 5.54744301 1.87949705 3.57104439 0 0 Z " fill="#6A4F41" transform="translate(417,187)"/>
<path d="M0 0 C0.66 1.32 1.32 2.64 2 4 C1.34 4.66 0.68 5.32 0 6 C-2.125 5.625 -2.125 5.625 -4 5 C-4 4.01 -4 3.02 -4 2 C-2.68 1.34 -1.36 0.68 0 0 Z " fill="#6F554D" transform="translate(394,182)"/>
<path d="M0 0 C2.31 0 4.62 0 7 0 C6.01 0.495 6.01 0.495 5 1 C4.67 1.66 4.34 2.32 4 3 C3.67 2.67 3.34 2.34 3 2 C2.01 3.485 2.01 3.485 1 5 C0.01 5.33 -0.98 5.66 -2 6 C-1.34 4.02 -0.68 2.04 0 0 Z " fill="#745D54" transform="translate(138,90)"/>
<path d="M0 0 C1.32 0 2.64 0 4 0 C4 1.32 4 2.64 4 4 C2.02 4.66 0.04 5.32 -2 6 C-1.125 1.125 -1.125 1.125 0 0 Z " fill="#775645" transform="translate(440,184)"/>
<path d="M0 0 C0.99 0 1.98 0 3 0 C3 0.99 3 1.98 3 3 C2.34 3 1.68 3 1 3 C1 3.66 1 4.32 1 5 C-1.31 5 -3.62 5 -6 5 C-5.67 4.34 -5.34 3.68 -5 3 C-2.4375 2.375 -2.4375 2.375 0 2 C0 1.34 0 0.68 0 0 Z " fill="#75564A" transform="translate(449,111)"/>
<path d="M0 0 C0.66 0.66 1.32 1.32 2 2 C1.625 4.625 1.625 4.625 1 7 C0.01 7.33 -0.98 7.66 -2 8 C-1.125 1.125 -1.125 1.125 0 0 Z " fill="#795D52" transform="translate(39,92)"/>
<path d="M0 0 C2.31 0 4.62 0 7 0 C7.66 1.32 8.32 2.64 9 4 C3.46153846 3.38461538 3.46153846 3.38461538 1.125 1.4375 C0.75375 0.963125 0.3825 0.48875 0 0 Z " fill="#745B52" transform="translate(150,90)"/>
<path d="M0 0 C2.64 0 5.28 0 8 0 C6 2 6 2 3 4 C1.68 4 0.36 4 -1 4 C-0.67 2.68 -0.34 1.36 0 0 Z " fill="#715649" transform="translate(761,117)"/>
<path d="M0 0 C1.65 0.33 3.3 0.66 5 1 C5 1.66 5 2.32 5 3 C4.34 3 3.68 3 3 3 C3 3.99 3 4.98 3 6 C1.68 5.67 0.36 5.34 -1 5 C-0.67 3.35 -0.34 1.7 0 0 Z " fill="#7A5448" transform="translate(687,115)"/>
<path d="M0 0 C0.66 0 1.32 0 2 0 C2 0.66 2 1.32 2 2 C2.66 2 3.32 2 4 2 C3.814375 2.598125 3.62875 3.19625 3.4375 3.8125 C2.77906313 6.16408762 2.77906313 6.16408762 4 9 C3.01 9 2.02 9 1 9 C0.67 6.03 0.34 3.06 0 0 Z " fill="#5E463C" transform="translate(768,186)"/>
<path d="M0 0 C0 1.32 0 2.64 0 4 C-1.32 4.33 -2.64 4.66 -4 5 C-4 3 -4 3 -3 2 C-4.32 1.34 -5.64 0.68 -7 0 C-3.86650268 -1.04449911 -3.01031744 -0.93423645 0 0 Z " fill="#5D473D" transform="translate(833,185)"/>
<path d="M0 0 C2.75717702 1.37858851 3.46321746 3.37466315 5 6 C5.66 6.66 6.32 7.32 7 8 C4.625 8.1875 4.625 8.1875 2 8 C-0.1519437 4.77208445 -0.20086443 3.71599191 0 0 Z " fill="#684B41" transform="translate(427,180)"/>
<path d="M0 0 C0.33 0.66 0.66 1.32 1 2 C1.99 2.33 2.98 2.66 4 3 C4 3.66 4 4.32 4 5 C3.34 5 2.68 5 2 5 C1.34 6.32 0.68 7.64 0 9 C-1.10844919 5.67465243 -0.84454356 3.37817425 0 0 Z " fill="#704E3F" transform="translate(186,40)"/>
<path d="M0 0 C0.66 0.33 1.32 0.66 2 1 C2 2.65 2 4.3 2 6 C0.68 5.67 -0.64 5.34 -2 5 C-2 3.68 -2 2.36 -2 1 C-1.34 0.67 -0.68 0.34 0 0 Z " fill="#6E564C" transform="translate(788,181)"/>
<path d="M0 0 C0.66 0.33 1.32 0.66 2 1 C1.01 1.33 0.02 1.66 -1 2 C-1 2.66 -1 3.32 -1 4 C-1.66 4 -2.32 4 -3 4 C-3.66 5.32 -4.32 6.64 -5 8 C-5.66 7.34 -6.32 6.68 -7 6 C-4.69 4.02 -2.38 2.04 0 0 Z " fill="#674E44" transform="translate(112,145)"/>
<path d="M0 0 C0.66 0.33 1.32 0.66 2 1 C1.01 2.485 1.01 2.485 0 4 C-3.625 4.1875 -3.625 4.1875 -7 4 C-7 3.34 -7 2.68 -7 2 C-3.86650268 0.95550089 -3.01031744 1.06576355 0 2 C0 1.34 0 0.68 0 0 Z " fill="#5F463B" transform="translate(450,114)"/>
<path d="M0 0 C0.66 0.33 1.32 0.66 2 1 C1.525625 1.598125 1.05125 2.19625 0.5625 2.8125 C-1.16465744 5.00382924 -1.16465744 5.00382924 -2 8 C-4 5 -4 5 -4 2 C-2.125 0.9375 -2.125 0.9375 0 0 Z " fill="#614A40" transform="translate(510,82)"/>
<path d="M0 0 C1.65 0 3.3 0 5 0 C5 1.32 5 2.64 5 4 C2.03 3.505 2.03 3.505 -1 3 C-0.67 2.01 -0.34 1.02 0 0 Z " fill="#604A40" transform="translate(238,189)"/>
<path d="M0 0 C0.66 0.66 1.32 1.32 2 2 C1.01 2.99 0.02 3.98 -1 5 C-3.475 4.01 -3.475 4.01 -6 3 C-6 2.34 -6 1.68 -6 1 C-3.125 0.375 -3.125 0.375 0 0 Z " fill="#694B42" transform="translate(754,184)"/>
<path d="M0 0 C0.66 0 1.32 0 2 0 C2 1.65 2 3.3 2 5 C0.02 5.99 0.02 5.99 -2 7 C-1.125 1.125 -1.125 1.125 0 0 Z " fill="#654C42" transform="translate(547,178)"/>
<path d="M0 0 C0.99 0 1.98 0 3 0 C2.42415568 2.38564077 1.77772405 4.66682784 1 7 C0.34 6.67 -0.32 6.34 -1 6 C-1.042721 4.33388095 -1.04063832 2.66617115 -1 1 C-0.67 0.67 -0.34 0.34 0 0 Z " fill="#795549" transform="translate(741,115)"/>
<path d="M0 0 C1.65 0 3.3 0 5 0 C4.6875 1.875 4.6875 1.875 4 4 C3.01 4.66 2.02 5.32 1 6 C1 5.01 1 4.02 1 3 C0.67 2.01 0.34 1.02 0 0 Z " fill="#604A40" transform="translate(637,74)"/>
<path d="M0 0 C2.95409701 1.37154504 5.44008376 2.98863724 8 5 C6.35 5.33 4.7 5.66 3 6 C3 5.01 3 4.02 3 3 C2.01 2.67 1.02 2.34 0 2 C0 1.34 0 0.68 0 0 Z " fill="#553D35" transform="translate(667,181)"/>
<path d="M0 0 C0.99 0.99 1.98 1.98 3 3 C2.01 3.33 1.02 3.66 0 4 C-0.33 4.99 -0.66 5.98 -1 7 C-1.66 5.35 -2.32 3.7 -3 2 C-2.01 1.34 -1.02 0.68 0 0 Z " fill="#694F41" transform="translate(308,114)"/>
<path d="M0 0 C2 1.1875 2 1.1875 4 3 C4.25 5.6875 4.25 5.6875 4 8 C3.01 8.495 3.01 8.495 2 9 C1.34 6.03 0.68 3.06 0 0 Z " fill="#6F5C52" transform="translate(386,81)"/>
<path d="M0 0 C0.33 0.66 0.66 1.32 1 2 C1.99 2.33 2.98 2.66 4 3 C1.47524538 4.26237731 -0.31200466 4.09856404 -3.125 4.0625 C-4.03507812 4.05347656 -4.94515625 4.04445313 -5.8828125 4.03515625 C-6.58148438 4.02355469 -7.28015625 4.01195312 -8 4 C-8 3.67 -8 3.34 -8 3 C-6.865625 2.87625 -5.73125 2.7525 -4.5625 2.625 C-3.386875 2.41875 -2.21125 2.2125 -1 2 C-0.67 1.34 -0.34 0.68 0 0 Z " fill="#705A50" transform="translate(67,53)"/>
</svg>
